<svg width="34" height="22" viewBox="0 0 34 22" fill="none" xmlns="http://www.w3.org/2000/svg">
<path fill-rule="evenodd" clip-rule="evenodd" d="M9.64853 0.00192399C10.5492 -0.0147987 11.4486 0.0775408 12.3271 0.276929C13.0667 0.438413 13.769 0.738909 14.3965 1.16244C14.976 1.5836 15.4346 2.14981 15.7261 2.80422C16.0612 3.60893 16.2228 4.47524 16.2005 5.34664C16.2386 6.30344 15.9942 7.25029 15.4979 8.06918C14.9757 8.8426 14.254 9.46028 13.4092 9.85671C14.5556 10.1658 15.5542 10.8737 16.2253 11.8532C16.8695 12.8911 17.1933 14.0959 17.1562 15.3169C17.1774 16.2904 16.9761 17.2559 16.5676 18.1398C16.1901 18.9109 15.6372 19.5829 14.9534 20.102C14.2493 20.6154 13.457 20.9952 12.6158 21.2226C11.7435 21.464 10.8424 21.5852 9.93729 21.5829H0V0.00192399H9.64853ZM9.07515 8.73057C9.78282 8.75974 10.4794 8.54789 11.0511 8.12968C11.3248 7.88597 11.5378 7.58161 11.6729 7.24091C11.808 6.90021 11.8616 6.53262 11.8293 6.16752C11.8476 5.74111 11.7627 5.31657 11.5818 4.93001C11.4283 4.62222 11.1897 4.36498 10.8943 4.18887C10.5951 3.99501 10.2589 3.86532 9.90704 3.80799C9.52524 3.73403 9.13672 3.70038 8.74789 3.70761H4.50182V8.74982H9.07515V8.73057ZM9.32265 17.9185C9.75062 17.9243 10.1777 17.8781 10.5945 17.781C10.9755 17.6968 11.3368 17.5405 11.6588 17.3203C11.9743 17.1003 12.2292 16.8043 12.4 16.4596C12.5979 16.0201 12.6888 15.5399 12.6653 15.0584C12.7083 14.6197 12.6501 14.1769 12.4955 13.7641C12.3408 13.3513 12.0936 12.9794 11.7729 12.6769C11.0933 12.1763 10.2603 11.9283 9.41753 11.9756H4.50182V17.9185H9.32265Z" fill="#565454"/>
<path fill-rule="evenodd" clip-rule="evenodd" d="M23.5679 17.8387C23.9212 18.1662 24.3375 18.4185 24.7913 18.5802C25.2452 18.7418 25.7271 18.8096 26.2079 18.7792C26.9702 18.7985 27.7176 18.5666 28.3351 18.1192C28.8374 17.7926 29.2178 17.3092 29.4172 16.7442H33.0074C32.6249 18.3527 31.6908 19.7763 30.3674 20.7675C29.0978 21.6102 27.5975 22.0369 26.0746 21.9885C24.9876 22.0028 23.9088 21.7985 22.9024 21.3876C21.992 21.008 21.1754 20.434 20.5098 19.706C19.8468 18.9431 19.3374 18.0593 19.0097 17.1031C18.6419 16.0343 18.4618 14.9099 18.4776 13.7796C18.4709 12.6684 18.657 11.5644 19.0276 10.5167C19.5255 9.04285 20.4775 7.7646 21.747 6.8654C23.0165 5.9662 24.5382 5.49228 26.0938 5.51164C27.2423 5.48763 28.378 5.75641 29.3939 6.29265C30.3121 6.79619 31.1043 7.50137 31.7108 8.35518C32.3312 9.25109 32.7758 10.2566 33.0212 11.3184C33.2902 12.4585 33.3862 13.6326 33.3058 14.8013H22.6123C22.5256 15.8993 22.8682 16.9881 23.5679 17.8387ZM28.2595 9.6312C27.9602 9.33189 27.6003 9.10019 27.204 8.95171C26.8076 8.80322 26.3841 8.74141 25.9618 8.77044C25.4016 8.74907 24.8455 8.87319 24.3475 9.1307C23.9528 9.34802 23.6043 9.64042 23.3218 9.99146C23.0714 10.3206 22.8848 10.6937 22.7718 11.0915C22.6699 11.4232 22.6062 11.7655 22.582 12.1117H29.2055C29.1478 11.2093 28.819 10.3452 28.2622 9.63258L28.2595 9.6312Z" fill="#565454"/>
<path d="M21.7281 1.44292H30.0277V3.56458H21.7281V1.44292Z" fill="#565454"/>
</svg>
