<svg width="64" height="64" viewBox="0 0 64 64" fill="none" xmlns="http://www.w3.org/2000/svg">
<g clip-path="url(#clip0_3773_9569)">
<path d="M64 32C64 14.3269 49.6731 0 32 0C14.3269 0 0 14.3269 0 32C0 49.6731 14.3269 64 32 64C49.6731 64 64 49.6731 64 32Z" fill="#0D0C0C"/>
<path fill-rule="evenodd" clip-rule="evenodd" d="M12.139 22.0074L22.0074 12.139C27.5262 6.62032 36.4738 6.62032 41.9926 12.139L51.861 22.0074C57.3797 27.5262 57.3797 36.4738 51.861 41.9926L41.9926 51.861C36.4738 57.3797 27.5262 57.3797 22.0074 51.861L12.139 41.9926C6.62032 36.4738 6.62032 27.5262 12.139 22.0074ZM26.384 15.0134H37.6137C43.8938 15.0134 48.9847 20.1043 48.9847 26.3844V37.6141C48.9847 43.8941 43.8938 48.9851 37.6137 48.9851H26.384C20.104 48.9851 15.013 43.8941 15.013 37.6141V26.3844C15.013 20.1043 20.104 15.0134 26.384 15.0134Z" fill="#565454"/>
</g>
<defs>
<clipPath id="clip0_3773_9569">
<rect width="64" height="64" fill="white"/>
</clipPath>
</defs>
</svg>
