<svg width="100" height="64" viewBox="0 0 100 64" fill="none" xmlns="http://www.w3.org/2000/svg">
<path d="M13.9994 24.3428C11.4222 24.1519 8.92459 25.3294 7.39739 27.4297V14H0V48.3859H7.39739V35.8154C7.39739 32.808 9.09959 31.3759 11.1518 31.3759C13.3948 31.3759 14.8107 32.9035 14.8107 35.6722V48.3859H22.2081V33.0308C22.2081 27.6207 18.6128 24.3428 13.9835 24.3428H13.9994ZM97.4069 24.3428C94.8457 24.1678 92.3958 25.4566 91.0754 27.6843V24.9952H83.9803V48.3859H91.3936V35.7358C91.2504 34.5583 91.6481 33.3967 92.4912 32.5693C93.3344 31.7419 94.4957 31.36 95.657 31.535C96.9138 31.551 98.1705 31.7578 99.3637 32.1556L100 24.7247C99.1569 24.486 98.2978 24.3587 97.4228 24.3587L97.4069 24.3428ZM43.398 27.5093C41.8231 25.4248 39.3414 24.2473 36.7483 24.3428C30.5282 24.3428 25.9465 29.737 25.9465 36.6428C25.9465 43.5486 30.5282 48.9905 36.7165 48.9905C39.3096 49.1019 41.8072 47.9244 43.3821 45.8399V48.37H50.4772V24.9793H43.3821V27.4934L43.398 27.5093ZM40.9004 41.0027C39.3573 41.8938 37.4642 41.8938 35.937 41.0027C34.3939 40.1116 33.4553 38.4568 33.4553 36.6587C33.4553 33.89 35.6825 31.6464 38.4187 31.6464C41.1549 31.6464 43.3821 33.89 43.3821 36.6587C43.3821 38.4568 42.4276 40.1116 40.9004 41.0027ZM69.3605 24.3587C66.8947 24.2473 64.5243 25.3134 62.9653 27.2229V14H55.5838V48.3859H62.679V45.8718C64.2539 47.9562 66.7356 49.1178 69.3287 48.9905C75.517 48.9905 80.1145 43.5486 80.1145 36.6428C80.1145 29.737 75.517 24.3428 69.3764 24.3587H69.3605ZM67.5788 41.6551C64.8425 41.6551 62.6153 39.4115 62.6153 36.6428C62.6153 33.8741 64.8425 31.6305 67.5788 31.6305C70.315 31.6305 72.5422 33.8741 72.5422 36.6428C72.5422 39.4115 70.315 41.6551 67.5788 41.6551Z" fill="#565454"/>
</svg>
