<svg width="40" height="40" viewBox="0 0 40 40" fill="none" xmlns="http://www.w3.org/2000/svg">
<path fill-rule="evenodd" clip-rule="evenodd" d="M20 0C8.95169 0 0 8.95819 0 19.9964C0 30.489 8.09494 39.1014 18.3777 39.9278V40H20C31.0483 40 40 31.0418 40 20.0036C40 8.96625 31.0491 0 20 0ZM24.4193 36.167C23.1646 36.5092 21.8512 36.7093 20.4974 36.7487H20C17.7426 36.7487 15.589 36.3016 13.6229 35.4912C15.5265 28.6324 20.6868 23.7196 26.5932 21.5244C27.6125 26.4642 26.8726 31.7579 24.4193 36.167ZM25.6939 18.4001C18.9527 20.8281 13.0652 26.2973 10.6996 33.9304C6.20565 30.9247 3.24458 25.804 3.24458 19.9964C3.24458 17.9369 3.61657 15.9638 4.29709 14.1409C6.32553 15.1516 8.49452 15.8665 10.7251 16.2641C13.5664 16.785 16.4776 16.7677 19.3107 16.2569C20.9234 15.9657 22.4977 15.502 24.0073 14.8841C24.6792 16.001 25.2443 17.1781 25.6939 18.4001ZM29.7205 20.6314C30.6946 25.1279 30.3992 29.8929 28.8446 34.234C33.4571 31.3616 36.5711 26.3101 36.7475 20.5232C34.4546 20.1075 32.0645 20.1582 29.7205 20.6314ZM36.5221 17.202C33.9828 16.8453 31.3716 16.9612 28.8208 17.5061C28.3184 16.0967 27.6843 14.739 26.9289 13.4498C29.0245 12.2395 30.9383 10.7161 32.5835 8.93983C34.5955 11.2276 35.9941 14.0677 36.5221 17.202ZM11.2983 13.0711C9.3606 12.7261 7.47849 12.1042 5.72211 11.2264C7.23269 8.77353 9.35788 6.73898 11.8833 5.33785L11.9027 5.34398L11.9035 5.34421L11.9036 5.34423L11.9036 5.34425C12.1787 5.43083 12.4414 5.51349 12.6943 5.60427C12.7876 5.63991 12.879 5.67455 12.9683 5.70841L12.9697 5.70894L12.9698 5.70897L12.9698 5.70899C13.38 5.86449 13.7462 6.00335 14.0521 6.14518L14.1394 6.18883L14.1602 6.1985C14.3534 6.28835 14.6318 6.42104 14.8827 6.54066C15.016 6.60429 15.1416 6.66416 15.2426 6.71191L15.2463 6.71398C15.3307 6.75929 15.4016 6.79735 15.4676 6.83673C15.5214 6.8716 15.5694 6.89985 15.5951 6.91491C15.6422 6.94248 15.6906 6.96973 15.7304 6.99191C15.7645 7.01085 15.7979 7.02929 15.823 7.04304L15.8356 7.04998L15.8623 7.06473L15.8657 7.06666C15.9029 7.0881 15.948 7.11385 15.9994 7.14323C16.1097 7.20616 16.2492 7.28573 16.4023 7.37535C16.5102 7.4386 16.6112 7.49891 16.6936 7.54998C16.7549 7.58801 16.7881 7.61008 16.8008 7.61848L16.8015 7.61898C16.8067 7.62244 16.8079 7.62324 16.8059 7.62164L16.877 7.67554L16.956 7.72248C17.0765 7.79398 17.1952 7.87615 17.3434 7.97866L17.3434 7.97869L17.3435 7.97873L17.3441 7.97916C17.4117 8.02598 17.4856 8.07704 17.5684 8.13329L17.6247 8.17148L17.6726 8.19848C17.6726 8.19856 17.6748 8.20007 17.6796 8.20329C17.6924 8.21195 17.7237 8.23302 17.7782 8.27204C17.862 8.33204 17.9632 8.40735 18.0746 8.4911L18.2064 8.59048C18.2742 8.64166 18.343 8.69354 18.4015 8.73729C18.4787 8.7951 18.5732 8.86529 18.6586 8.92441C19.9035 9.87657 21.0415 10.9638 22.0546 12.1622C20.9767 12.5566 19.8657 12.8602 18.7346 13.0644C16.2687 13.509 13.75 13.521 11.3068 13.0726L11.3026 13.0718L11.2983 13.0711ZM20 3.24399C23.8458 3.24399 27.3888 4.54111 30.2165 6.72095C28.7339 8.32492 26.9979 9.69092 25.0969 10.7599C23.79 9.09878 22.278 7.6032 20.5922 6.31904L20.5514 6.28804L20.5092 6.25985L20.4977 6.25185C20.4887 6.2455 20.4767 6.23691 20.4613 6.22574C20.4302 6.20313 20.3916 6.17458 20.3454 6.13995C20.2929 6.1007 20.2403 6.06099 20.1838 6.01834L20.1836 6.01825L20.172 6.00951C20.1262 5.9749 20.0777 5.93829 20.0246 5.89838C19.9097 5.812 19.7837 5.71805 19.668 5.63511C19.5871 5.57714 19.4709 5.49515 19.3521 5.42285L19.2768 5.37075L19.2764 5.37046L19.2763 5.37044C19.1219 5.26347 18.8902 5.10299 18.6794 4.97355C18.4825 4.8355 18.2164 4.67823 18.042 4.57612C17.8732 4.47726 17.6914 4.3735 17.5785 4.30908L17.5776 4.30858L17.4921 4.2597C17.4709 4.24732 17.4525 4.23709 17.4454 4.23308L17.4444 4.23253L17.4006 4.2083L17.3857 4.20013C17.3605 4.18627 17.3354 4.1724 17.3092 4.15781C17.2792 4.14113 17.2549 4.12737 17.2372 4.11707L17.225 4.10854L17.182 4.08223C17.0262 3.98702 16.8638 3.90007 16.7757 3.85287L16.7738 3.85186L16.7431 3.83542L16.7054 3.81513L16.6667 3.79686C16.5893 3.76031 16.4749 3.7058 16.3449 3.64386C17.5214 3.38208 18.7446 3.24399 20 3.24399Z" fill="#565454"/>
</svg>
