<svg width="1239" height="819" viewBox="0 0 1239 819" fill="none" xmlns="http://www.w3.org/2000/svg">
<path opacity="0.3" d="M48.5 131V338.548C48.5 340.205 49.3216 341.755 50.6935 342.686L229.307 463.827C230.678 464.758 231.5 466.307 231.5 467.965V662" stroke="url(#paint0_linear_2884_5503)" stroke-width="4" stroke-linecap="round"/>
<path d="M1092.5 131V368.165C1092.5 369.35 1092.08 370.496 1091.31 371.399L995.687 484.1C994.921 485.004 994.5 486.15 994.5 487.335V661" stroke="url(#paint1_linear_2884_5503)" stroke-width="2" stroke-linecap="round"/>
<path opacity="0.5" d="M1102.5 131V368.165C1102.5 369.35 1102.08 370.496 1101.31 371.399L1005.69 484.1C1004.92 485.004 1004.5 486.15 1004.5 487.335V661" stroke="url(#paint2_linear_2884_5503)" stroke-width="2" stroke-linecap="round"/>
<path opacity="0.5" d="M12.5 4V241.165C12.5 242.35 12.9208 243.496 13.6874 244.399L109.313 357.1C110.079 358.004 110.5 359.15 110.5 360.335V534" stroke="url(#paint3_linear_2884_5503)" stroke-width="2" stroke-linecap="round"/>
<path d="M1112.5 131V368.165C1112.5 369.35 1112.08 370.496 1111.31 371.399L1015.69 484.1C1014.92 485.004 1014.5 486.15 1014.5 487.335V661" stroke="url(#paint4_linear_2884_5503)" stroke-width="2" stroke-linecap="round"/>
<path opacity="0.3" d="M313.5 183V420.165C313.5 421.35 313.921 422.496 314.687 423.399L410.313 536.1C411.079 537.004 411.5 538.15 411.5 539.335V713" stroke="url(#paint5_linear_2884_5503)" stroke-width="2" stroke-linecap="round"/>
<path d="M4.49999 1V238.165C4.49999 239.35 4.92082 240.496 5.68745 241.399L101.313 354.1C102.079 355.004 102.5 356.15 102.5 357.335V531" stroke="url(#paint6_linear_2884_5503)" stroke-width="2" stroke-linecap="round"/>
<path d="M1236.5 2V295.322C1236.5 296.411 1236.14 297.47 1235.49 298.338L1071.51 515.162C1070.86 516.03 1070.5 517.089 1070.5 518.178V713" stroke="url(#paint7_linear_2884_5503)" stroke-width="4" stroke-linecap="round"/>
<path opacity="0.3" d="M1071.5 159V331.084C1071.5 332.317 1071.04 333.508 1070.22 334.425L926.781 494.075C925.956 494.992 925.5 496.182 925.5 497.416V696" stroke="url(#paint8_linear_2884_5503)" stroke-width="6" stroke-linecap="round"/>
<path d="M635.5 20V253.739C635.5 254.718 635.788 255.676 636.327 256.493L779.673 473.68C780.212 474.497 780.5 475.455 780.5 476.434V746" stroke="url(#paint9_linear_2884_5503)" stroke-width="6" stroke-linecap="round"/>
<path opacity="0.5" d="M231.5 124V296.084C231.5 297.317 231.956 298.508 232.781 299.425L376.219 459.075C377.044 459.992 377.5 461.182 377.5 462.416V661" stroke="url(#paint10_linear_2884_5503)" stroke-width="6" stroke-linecap="round"/>
<path opacity="0.4" d="M891.5 279V451.084C891.5 452.317 891.044 453.508 890.219 454.425L746.781 614.075C745.956 614.992 745.5 616.182 745.5 617.416V816" stroke="url(#paint11_linear_2884_5503)" stroke-width="6" stroke-linecap="round"/>
<path d="M439.5 295V453.866C439.5 459.65 441.172 465.311 444.315 470.167L469.685 509.362C472.828 514.218 474.5 519.879 474.5 525.663V663" stroke="url(#paint12_linear_2884_5503)" stroke-width="3" stroke-linecap="round"/>
<path opacity="0.2" d="M649.5 434V509.365C649.5 516.037 647.276 522.518 643.181 527.784L625.819 550.105C621.724 555.371 619.5 561.852 619.5 568.523V704" stroke="url(#paint13_linear_2884_5503)" stroke-width="3" stroke-linecap="round"/>
<path opacity="0.3" d="M822.5 83V211.875C822.5 220.533 818.759 228.768 812.24 234.465L729.76 306.535C723.241 312.232 719.5 320.467 719.5 329.125V532" stroke="url(#paint14_linear_2884_5503)" stroke-width="3" stroke-linecap="round"/>
<path d="M828.5 76V210.939C828.5 219.393 824.933 227.454 818.677 233.14L735.323 308.893C729.067 314.579 725.5 322.641 725.5 331.095V543" stroke="url(#paint15_linear_2884_5503)" stroke-width="3" stroke-linecap="round"/>
<path opacity="0.5" d="M834.5 59V208.702C834.5 216.687 831.316 224.343 825.654 229.974L740.346 314.808C734.684 320.439 731.5 328.095 731.5 336.08V570" stroke="url(#paint16_linear_2884_5503)" stroke-width="3" stroke-linecap="round"/>
<path d="M1051.5 296V379.331C1051.5 387.431 1048.23 395.186 1042.42 400.834L894.58 544.666C888.775 550.314 885.5 558.069 885.5 566.169V741" stroke="url(#paint17_linear_2884_5503)" stroke-width="3" stroke-linecap="round"/>
<path d="M157.5 317V535.208C157.5 543.962 161.324 552.28 167.969 557.979L270.031 645.521C276.676 651.22 280.5 659.538 280.5 668.292V805" stroke="url(#paint18_linear_2884_5503)" stroke-width="3" stroke-linecap="round"/>
<path opacity="0.2" d="M405.5 154V278.854C405.5 287.326 409.083 295.404 415.363 301.091L484.637 363.821C490.917 369.508 494.5 377.586 494.5 386.059V587" stroke="url(#paint19_linear_2884_5503)" stroke-width="3" stroke-linecap="round"/>
<path d="M986.5 172V551.933C986.5 558.772 984.164 565.405 979.878 570.734L917.122 648.766C912.836 654.095 910.5 660.728 910.5 667.567V812" stroke="url(#paint20_linear_2884_5503)" stroke-width="3" stroke-linecap="round"/>
<path opacity="0.3" d="M152.5 101V227.165C152.5 232.618 153.986 237.969 156.8 242.64L204.2 321.36C207.014 326.031 208.5 331.382 208.5 336.835V521" stroke="url(#paint21_linear_2884_5503)" stroke-width="3" stroke-linecap="round"/>
<path opacity="0.5" d="M509.5 138V282.719C509.5 290.292 512.364 297.584 517.516 303.133L540.484 327.867C545.636 333.416 548.5 340.708 548.5 348.281V456" stroke="url(#paint22_linear_2884_5503)" stroke-width="3" stroke-linecap="round"/>
<path opacity="0.5" d="M628.5 324V462.711C628.5 470.403 625.545 477.802 620.246 483.378L577.754 528.087C572.455 533.663 569.5 541.061 569.5 548.754V715" stroke="url(#paint23_linear_2884_5503)" stroke-width="3" stroke-linecap="round"/>
<path opacity="0.5" d="M1.5 332V568.521C1.5 576.803 4.92359 584.716 10.9597 590.386L58.0403 634.614C64.0764 640.284 67.5 648.197 67.5 656.479V817" stroke="url(#paint24_linear_2884_5503)" stroke-width="3" stroke-linecap="round"/>
<path opacity="0.3" d="M97.5 707V596.096C97.5 587.63 93.9225 579.558 87.6502 573.871L49.3498 539.147C43.0775 533.46 39.5 525.388 39.5 516.921V395" stroke="url(#paint25_linear_2884_5503)" stroke-width="3" stroke-linecap="round"/>
<defs>
<linearGradient id="paint0_linear_2884_5503" x1="140" y1="662" x2="140" y2="347.704" gradientUnits="userSpaceOnUse">
<stop stop-color="#0490C7"/>
<stop offset="1" stop-color="#03496A"/>
</linearGradient>
<linearGradient id="paint1_linear_2884_5503" x1="1043.5" y1="661" x2="1043.25" y2="504.5" gradientUnits="userSpaceOnUse">
<stop stop-color="#FFFBE6"/>
<stop offset="1" stop-color="#03496A"/>
</linearGradient>
<linearGradient id="paint2_linear_2884_5503" x1="1053.5" y1="661" x2="1053.25" y2="504.5" gradientUnits="userSpaceOnUse">
<stop stop-color="#FFFBE6"/>
<stop offset="1" stop-color="#03496A"/>
</linearGradient>
<linearGradient id="paint3_linear_2884_5503" x1="61.5" y1="534" x2="61.7487" y2="377.5" gradientUnits="userSpaceOnUse">
<stop stop-color="#E6F9FF"/>
<stop offset="1" stop-color="#03496A"/>
</linearGradient>
<linearGradient id="paint4_linear_2884_5503" x1="1063.5" y1="661" x2="1063.25" y2="504.5" gradientUnits="userSpaceOnUse">
<stop stop-color="#FFFBE6"/>
<stop offset="1" stop-color="#03496A"/>
</linearGradient>
<linearGradient id="paint5_linear_2884_5503" x1="362.5" y1="713" x2="362.749" y2="556.5" gradientUnits="userSpaceOnUse">
<stop stop-color="#FFFBE6"/>
<stop offset="1" stop-color="#057AA3"/>
</linearGradient>
<linearGradient id="paint6_linear_2884_5503" x1="53.5" y1="531" x2="53.7487" y2="374.5" gradientUnits="userSpaceOnUse">
<stop stop-color="#4DD4FF"/>
<stop offset="1" stop-color="#03496A"/>
</linearGradient>
<linearGradient id="paint7_linear_2884_5503" x1="1162.03" y1="713" x2="1162.03" y2="399" gradientUnits="userSpaceOnUse">
<stop stop-color="#80E0FF"/>
<stop offset="1" stop-color="#03496A"/>
</linearGradient>
<linearGradient id="paint8_linear_2884_5503" x1="998.5" y1="696" x2="998.5" y2="159" gradientUnits="userSpaceOnUse">
<stop stop-color="#F8F7F7"/>
<stop offset="1" stop-color="#1A191A"/>
</linearGradient>
<linearGradient id="paint9_linear_2884_5503" x1="708" y1="746" x2="708" y2="20" gradientUnits="userSpaceOnUse">
<stop stop-color="#F8F7F7"/>
<stop offset="1" stop-color="#1A191A"/>
</linearGradient>
<linearGradient id="paint10_linear_2884_5503" x1="304.5" y1="661" x2="304.5" y2="124" gradientUnits="userSpaceOnUse">
<stop stop-color="#F8F7F7"/>
<stop offset="1" stop-color="#1A191A"/>
</linearGradient>
<linearGradient id="paint11_linear_2884_5503" x1="818.5" y1="816" x2="818.5" y2="279" gradientUnits="userSpaceOnUse">
<stop stop-color="#F8F7F7"/>
<stop offset="1" stop-color="#1A191A"/>
</linearGradient>
<linearGradient id="paint12_linear_2884_5503" x1="439.5" y1="478.999" x2="474.5" y2="478.999" gradientUnits="userSpaceOnUse">
<stop stop-color="#E6F9FF"/>
<stop offset="1" stop-color="#03496A"/>
</linearGradient>
<linearGradient id="paint13_linear_2884_5503" x1="619.5" y1="568.999" x2="649.5" y2="568.999" gradientUnits="userSpaceOnUse">
<stop stop-color="#E6F9FF"/>
<stop offset="1" stop-color="#03496A"/>
</linearGradient>
<linearGradient id="paint14_linear_2884_5503" x1="719.5" y1="307.499" x2="822.5" y2="307.499" gradientUnits="userSpaceOnUse">
<stop stop-color="#0490C7"/>
<stop offset="1" stop-color="#03496A"/>
</linearGradient>
<linearGradient id="paint15_linear_2884_5503" x1="725.5" y1="309.499" x2="828.5" y2="309.499" gradientUnits="userSpaceOnUse">
<stop stop-color="#80E0FF"/>
<stop offset="1" stop-color="#03496A"/>
</linearGradient>
<linearGradient id="paint16_linear_2884_5503" x1="731.5" y1="314.499" x2="834.5" y2="314.499" gradientUnits="userSpaceOnUse">
<stop stop-color="#E6F9FF"/>
<stop offset="1" stop-color="#03496A"/>
</linearGradient>
<linearGradient id="paint17_linear_2884_5503" x1="885.5" y1="518.499" x2="1051.5" y2="518.499" gradientUnits="userSpaceOnUse">
<stop stop-color="#E6F9FF"/>
<stop offset="1" stop-color="#03496A"/>
</linearGradient>
<linearGradient id="paint18_linear_2884_5503" x1="157.5" y1="560.999" x2="280.5" y2="560.999" gradientUnits="userSpaceOnUse">
<stop stop-color="#E6F9FF"/>
<stop offset="1" stop-color="#03496A"/>
</linearGradient>
<linearGradient id="paint19_linear_2884_5503" x1="405.5" y1="370.499" x2="494.5" y2="370.499" gradientUnits="userSpaceOnUse">
<stop stop-color="#E6F9FF"/>
<stop offset="1" stop-color="#03496A"/>
</linearGradient>
<linearGradient id="paint20_linear_2884_5503" x1="910.5" y1="491.999" x2="986.5" y2="491.999" gradientUnits="userSpaceOnUse">
<stop stop-color="#E6F9FF"/>
<stop offset="1" stop-color="#0685B0"/>
</linearGradient>
<linearGradient id="paint21_linear_2884_5503" x1="152.5" y1="310.999" x2="208.5" y2="310.999" gradientUnits="userSpaceOnUse">
<stop stop-color="#E6F9FF"/>
<stop offset="1" stop-color="#03496A"/>
</linearGradient>
<linearGradient id="paint22_linear_2884_5503" x1="509.5" y1="296.999" x2="548.5" y2="296.999" gradientUnits="userSpaceOnUse">
<stop stop-color="#E6F9FF"/>
<stop offset="1" stop-color="#4DD4FF"/>
</linearGradient>
<linearGradient id="paint23_linear_2884_5503" x1="569.5" y1="519.499" x2="628.5" y2="519.499" gradientUnits="userSpaceOnUse">
<stop stop-color="#26C7FF"/>
<stop offset="1" stop-color="#03496A"/>
</linearGradient>
<linearGradient id="paint24_linear_2884_5503" x1="1.5" y1="574.499" x2="67.5" y2="574.499" gradientUnits="userSpaceOnUse">
<stop stop-color="#E6F9FF"/>
<stop offset="1" stop-color="#03496A"/>
</linearGradient>
<linearGradient id="paint25_linear_2884_5503" x1="97.5" y1="551.001" x2="39.5" y2="551.001" gradientUnits="userSpaceOnUse">
<stop stop-color="#E6F9FF"/>
<stop offset="1" stop-color="#03496A"/>
</linearGradient>
</defs>
</svg>
