<svg  viewBox="0 0 97 115" fill="none" xmlns="http://www.w3.org/2000/svg">
<path d="M35.0946 0.0250702L29.9482 0.0540543L29.7349 0.517746C29.6186 0.768921 29.483 1.05874 29.4442 1.165C29.26 1.5804 28.9887 2.24696 28.8239 2.66235C28.727 2.90386 28.6107 3.18401 28.5622 3.29028C28.4653 3.54145 28.1067 4.44952 27.9419 4.88425C27.5058 6.03383 26.2652 9.21209 25.9842 9.90763C25.4608 11.1828 25.0731 12.1392 24.918 12.5642C24.8405 12.7768 24.7145 13.0762 24.6467 13.2405C24.5788 13.395 24.4237 13.7718 24.3171 14.0616C24.2008 14.3514 24.0651 14.6799 24.0167 14.7861C23.9682 14.8924 23.8228 15.2788 23.6872 15.6556C23.4449 16.3608 22.9118 17.7325 22.7567 18.0707C22.7083 18.1769 22.5726 18.5054 22.466 18.7952C22.3594 19.085 22.2237 19.4134 22.1752 19.5197C22.1268 19.626 21.9329 20.0993 21.7391 20.5824C21.5452 21.0557 21.3223 21.587 21.2448 21.7609C21.1769 21.9251 21.1091 22.099 21.1091 22.157C21.1091 22.2053 20.9928 22.5048 20.8571 22.8139C20.6148 23.3742 19.9654 25.0261 19.6844 25.799C19.6165 26.0115 19.413 26.5138 19.2482 26.9099C19.0835 27.306 18.8993 27.789 18.8315 27.9725C18.657 28.4362 18.1143 29.7984 17.9592 30.1461C17.7169 30.6775 16.6217 33.4596 15.7107 35.8457C15.3133 36.8891 15.0225 37.6136 14.9062 37.8744C14.819 38.058 14.1212 39.7968 13.8983 40.3861C13.8401 40.5407 13.7335 40.7725 13.6657 40.8885C13.5978 41.0044 13.5494 41.159 13.5494 41.2459C13.5494 41.3232 13.4718 41.5261 13.3846 41.7096C13.2974 41.8835 13.1714 42.1443 13.0938 42.2892C13.026 42.4245 12.9678 42.5887 12.9678 42.6563C12.9678 42.7143 12.5996 43.7093 12.144 44.8589C11.6885 46.0085 11.2621 47.0808 11.2039 47.245C11.1458 47.3996 10.855 48.1434 10.5449 48.8873C10.2347 49.6311 9.66289 51.0898 9.25582 52.1235C7.42404 56.8088 6.52269 59.1079 6.13501 59.9967C6.06717 60.1513 5.93148 60.4797 5.84425 60.7212C5.74733 60.9627 5.62134 61.2815 5.55349 61.4458C5.48565 61.6003 5.35966 61.9095 5.28212 62.122C4.96229 62.9914 3.77987 65.9861 3.19835 67.4352C2.84944 68.2853 2.49083 69.1741 2.40361 69.4156C2.15162 70.0725 2.02562 70.4106 1.91901 70.6231C1.8124 70.8646 1.24057 72.3523 0.959504 73.1348C0.843201 73.4536 0.707513 73.8014 0.659054 73.9076C0.610594 74.0139 0.436138 74.439 0.281067 74.8447L0 75.5789L0.251991 75.6465C0.707513 75.7624 15.0904 75.5789 15.1873 75.463C15.2358 75.405 15.5071 74.7867 15.7785 74.1008C16.2534 72.8933 16.4182 72.5069 16.6993 71.879C16.7671 71.7147 16.9609 71.2607 17.116 70.8646C17.2808 70.4685 17.5618 69.7633 17.7557 69.2996C17.9495 68.8456 18.1046 68.4399 18.1046 68.4012C18.1046 68.3722 18.2112 68.1114 18.3372 67.8409C18.4632 67.5608 18.6376 67.1164 18.7346 66.8556C18.8896 66.4208 19.539 64.8172 19.7522 64.3439C19.8007 64.2376 19.9945 63.7546 20.1884 63.2812C20.3822 62.7982 20.6051 62.2572 20.6826 62.0737C20.7699 61.8901 20.8668 61.6486 20.9056 61.5424C20.954 61.4361 21.08 61.1463 21.1963 60.8855C21.3029 60.6343 21.3999 60.3638 21.3999 60.2768C21.3999 60.1996 21.5162 60.0933 21.6518 60.045C21.9135 59.9387 30.2874 59.9098 30.5491 60.0064C30.772 60.0933 30.7429 60.2768 30.3552 61.04C28.7173 64.2762 27.5833 67.9085 27.0697 71.5698C26.4881 75.6948 26.4784 79.0566 27.0309 83.085C27.2247 84.4954 27.6512 86.6304 27.9419 87.635C28.0195 87.9055 28.0873 88.1953 28.0873 88.2823C28.0873 88.3692 28.1455 88.5818 28.223 88.7556C28.2908 88.9295 28.4265 89.3159 28.5234 89.6058C28.6979 90.1467 29.2794 91.7214 29.4442 92.0692C29.4926 92.1754 29.6477 92.5425 29.7931 92.8903C30.2098 93.9239 31.6636 96.7738 32.2064 97.6239C34.0479 100.512 35.3078 102.116 37.3431 104.145C38.3026 105.101 39.2621 106.028 39.4754 106.193C41.1811 107.535 41.7142 107.922 43.0905 108.801C46.4439 110.936 50.8634 112.713 54.5948 113.419C54.9728 113.486 55.3605 113.573 55.4671 113.602C55.8742 113.708 58.4328 114.037 59.6346 114.143C61.2435 114.269 64.626 114.269 66.0701 114.143C71.5364 113.65 75.3453 112.511 79.7939 110.037C80.8988 109.429 82.876 108.018 84.2522 106.859C85.454 105.845 87.3052 103.893 88.4682 102.406C88.759 102.029 89.0304 101.681 89.0788 101.633C90.6005 99.7202 93.101 95.1701 94.0411 92.6005C95.1945 89.4415 95.8244 86.5917 96.1249 83.2782C96.2218 82.1866 96.2509 77.9843 96.1637 77.6462L96.1055 77.4337H79.4062C65.4401 77.4337 62.6973 77.453 62.6004 77.5689C62.5229 77.6559 62.5035 79.3271 62.5132 83.626L62.5422 89.5575L72.0888 89.6058L81.6354 89.6541L81.6645 89.9149C81.7323 90.4559 79.8908 93.5085 78.5727 95.0735C77.2062 96.6868 75.8202 97.875 74.1726 98.8314C72.9805 99.5366 72.6897 99.6719 71.6721 100.049C70.0147 100.667 68.6772 100.986 66.6613 101.247C65.0912 101.449 61.1563 101.411 59.4893 101.16C58.0742 100.957 56.0195 100.435 54.8371 99.9907C54.3331 99.7975 53.7904 99.5946 53.6256 99.5366C52.9472 99.2855 51.0766 98.2421 50.0299 97.5273C48.3629 96.397 47.6845 95.827 46.1337 94.2427C44.0015 92.0692 42.5865 89.9632 41.1715 86.8525C40.6966 85.8092 40.1635 83.9931 39.8533 82.3605C39.7855 81.9644 39.6983 81.578 39.6692 81.5007C39.6401 81.4331 39.5529 80.5153 39.4754 79.472C39.2621 76.7671 39.4075 74.6901 39.9697 72.0239C40.1441 71.1931 40.4639 70.0338 40.5899 69.7537C40.6384 69.6474 40.7547 69.3383 40.8419 69.0775C40.9292 68.807 41.0745 68.4205 41.1715 68.208C41.2684 67.9955 41.4816 67.5125 41.6561 67.1454C42.3442 65.6287 43.8561 63.3875 45.1936 61.8805C46.347 60.586 46.9576 60.0547 47.3937 59.9484C47.9558 59.8228 52.9569 59.8228 53.1992 59.9484C53.4318 60.074 53.6256 60.4604 53.9745 61.4458C54.1199 61.8708 54.4494 62.7402 54.7014 63.3778C54.9437 64.0154 55.2151 64.711 55.2926 64.9235C55.4477 65.3872 55.5253 65.5611 55.7966 66.1407C55.9032 66.3822 56.0002 66.6334 56.0002 66.701C56.0002 66.759 56.0389 66.8845 56.0971 66.9812C56.194 67.155 56.5235 67.9665 57.0954 69.4639C57.2795 69.9372 57.6478 70.9033 57.9289 71.6085C58.2002 72.3137 58.4232 72.9319 58.4232 72.9802C58.4232 73.0285 58.4813 73.1928 58.5588 73.3473C58.7818 73.7821 59.0047 74.3134 59.0047 74.4196C59.0047 74.4776 59.0725 74.6418 59.1404 74.7964C59.2179 74.9413 59.3051 75.1442 59.3342 75.2311C59.3827 75.3953 59.8285 75.405 66.8745 75.405C71.0905 75.405 74.4246 75.3664 74.5021 75.3181C74.6184 75.2408 74.6184 75.1828 74.4827 74.893C74.3858 74.7095 74.318 74.5066 74.318 74.4583C74.318 74.4003 74.2598 74.2361 74.1823 74.0815C74.0272 73.7821 73.9981 73.7048 73.4941 72.4586C72.9417 71.1061 72.6316 70.3236 72.2051 69.2224C71.1293 66.4208 70.9161 65.8702 70.8289 65.6963C70.7804 65.5901 70.5381 64.9814 70.2861 64.3439C70.0438 63.7063 69.6852 62.8175 69.5011 62.3635C69.3169 61.9095 69.094 61.3685 69.0165 61.1559C68.842 60.6922 68.7742 60.5377 68.5125 59.9098C68.3962 59.6489 68.309 59.3881 68.309 59.3301C68.309 59.2722 68.2508 59.1079 68.1733 58.963C68.0957 58.8181 67.8922 58.3158 67.7274 57.8521C67.553 57.3884 67.3398 56.8281 67.2525 56.6156C67.1556 56.403 67.0005 56.0359 66.9036 55.7944C66.8067 55.5529 66.6807 55.2341 66.6129 55.0796C66.3996 54.6062 66.5159 54.5096 67.1847 54.5676C67.805 54.6255 69.85 55.1182 70.4412 55.3501C70.6253 55.4273 71.1487 55.6205 71.6042 55.7944C74.8995 57.031 78.282 59.2915 81.2671 62.2572C82.0619 63.0397 82.4108 63.3295 82.5949 63.3295C82.7209 63.3295 82.8469 63.2909 82.8663 63.2426C82.8857 63.1943 84.4267 61.61 86.2875 59.7069C90.1837 55.7461 91.1529 54.7415 91.2789 54.5289C91.3952 54.3261 91.1529 53.9976 89.9899 52.8094C88.4004 51.1961 87.0241 49.9113 86.1906 49.2737C85.9774 49.1095 85.7448 48.9162 85.6576 48.839C85.328 48.5202 83.1183 46.9938 82.0715 46.3562C80.7825 45.5834 78.9604 44.6753 77.5648 44.1247C76.615 43.7479 74.1629 42.9461 73.3972 42.7626C73.184 42.7143 72.6606 42.579 72.2439 42.4631C71.4782 42.2699 71.1487 42.2023 69.6174 41.9415C67.5045 41.584 65.7212 41.4101 62.9784 41.3135L61.1854 41.2556L61.0206 40.9174C60.9237 40.7339 60.6717 40.0963 60.4488 39.5167C60.2259 38.9274 60.0126 38.3671 59.9642 38.2608C59.9254 38.1546 59.7897 37.8261 59.6734 37.5363C59.5571 37.2465 59.402 36.8698 59.3342 36.6959C59.2567 36.5316 59.1985 36.3288 59.1985 36.2515C59.1985 36.1645 59.1597 36.0776 59.1016 36.039C59.0531 36.01 58.9659 35.8457 58.9174 35.6719C58.8399 35.4014 57.7835 32.7641 57.5509 32.2714C57.3667 31.856 56.4848 29.5762 56.4848 29.4989C56.4848 29.4023 56.1552 28.6101 56.0002 28.3396C55.942 28.243 55.9032 28.1175 55.9032 28.0498C55.9032 27.9822 55.8451 27.818 55.7772 27.6827C55.7094 27.5475 55.5737 27.219 55.4768 26.9582C55.3799 26.6877 55.1473 26.1081 54.9631 25.6541C54.779 25.2 54.4979 24.5238 54.3525 24.1567C54.0521 23.4322 52.7437 20.0704 52.4044 19.1816C52.1621 18.5537 51.6775 17.3171 51.4934 16.9114C51.4256 16.7472 51.2996 16.4284 51.2026 16.1869C51.1154 15.9454 50.9797 15.6169 50.9119 15.4624C50.7568 15.1146 49.3321 11.4919 48.6827 9.81103C48.4307 9.14446 48.1691 8.46824 48.0915 8.31367C48.0237 8.14945 47.8977 7.86929 47.8201 7.66643C47.7329 7.47322 47.6651 7.27036 47.6651 7.21239C47.6651 7.15443 47.6263 7.02885 47.5682 6.93224C47.5197 6.8453 47.3162 6.37193 47.132 5.89857C46.9382 5.41556 46.7443 4.94221 46.6959 4.83595C46.5893 4.59443 46.3179 3.90854 45.9108 2.85556C45.2227 1.06839 44.8641 0.218285 44.7575 0.112015C44.6412 -0.00390625 43.3328 -0.0232315 35.0946 0.0250702ZM38.2057 21.7609C38.5159 22.5434 38.8357 23.3645 38.9132 23.5771C39.0005 23.7896 39.1168 24.0891 39.1846 24.2533C39.2524 24.4079 39.3881 24.7363 39.4754 24.9778C39.5626 25.2193 39.6983 25.5381 39.7661 25.7024C39.834 25.8569 39.9503 26.1661 40.0375 26.3786C40.115 26.5911 40.3186 27.0934 40.4833 27.4895C40.6481 27.8856 40.997 28.7744 41.2684 29.4699C41.5398 30.1558 41.8887 31.0252 42.0437 31.402C42.4702 32.4453 42.8675 33.4693 43.1098 34.1552C43.2358 34.503 43.3618 34.8218 43.4006 34.8797C43.4394 34.928 43.546 35.1888 43.6429 35.4593C43.7398 35.7202 43.8852 36.1162 43.9821 36.3288C44.0694 36.5413 44.2244 36.9084 44.3117 37.1499C44.4086 37.3914 44.554 37.7102 44.6218 37.8744C44.9029 38.5024 46.599 42.8495 46.599 42.9365C46.599 42.9848 46.7153 43.2456 46.8509 43.5161C47.2289 44.2696 47.1611 44.4725 46.4051 44.8589C46.0562 45.0424 45.4941 45.3322 45.1452 45.5061C44.7962 45.6897 44.3407 45.8732 44.1275 45.9312C43.672 46.0471 27.4186 46.1147 27.2344 45.9988C27.1666 45.9602 27.1181 45.8732 27.1181 45.7959C27.1181 45.6897 28.2036 42.8785 28.475 42.3182C28.7754 41.6613 28.9596 41.1976 28.9596 41.0913C28.9596 41.0141 28.9984 40.9174 29.0371 40.8595C29.0759 40.8112 29.2116 40.5117 29.3376 40.1929C29.4636 39.8741 29.6186 39.4781 29.6962 39.3042C29.7737 39.1399 29.8319 38.9564 29.8319 38.8984C29.8319 38.8405 29.9579 38.5024 30.1129 38.1449C30.2777 37.7778 30.5588 37.0726 30.7526 36.5703C31.2953 35.1695 31.3923 34.9184 31.6443 34.3774C31.7606 34.1069 31.8672 33.8461 31.8672 33.8171C31.8672 33.7784 32.0222 33.3727 32.2161 32.9187C32.4099 32.455 32.6328 31.9043 32.7104 31.6918C32.7879 31.4793 32.9139 31.1701 32.9818 31.0156C33.0496 30.8513 33.2047 30.4649 33.3307 30.1461C33.4567 29.8273 33.5923 29.5279 33.6311 29.4699C33.6699 29.4216 33.7086 29.325 33.7086 29.2574C33.7086 29.1898 33.9703 28.4942 34.2805 27.7021C34.5906 26.9196 35.0268 25.8279 35.2497 25.2676C35.4726 24.7073 35.6955 24.1664 35.744 24.0601C35.8603 23.7993 36.4999 22.215 36.6841 21.7416C36.7616 21.5291 36.8876 21.2393 36.9651 21.0944C37.0427 20.9591 37.1008 20.7756 37.1008 20.6983C37.1008 20.5341 37.4788 20.2249 37.5854 20.2925C37.6242 20.3119 37.9053 20.9784 38.2057 21.7609Z" fill="#383737"/>
</svg>
