<svg width="14" height="12" viewBox="0 0 14 12" fill="none" xmlns="http://www.w3.org/2000/svg">
<path d="M14 6C14 6.15912 13.9385 6.31172 13.8292 6.42424C13.7198 6.53676 13.5714 6.59997 13.4167 6.59997H1.99175L6.2463 10.9752C6.30049 11.031 6.34348 11.0971 6.37281 11.17C6.40214 11.2428 6.41724 11.3209 6.41724 11.3997C6.41724 11.4785 6.40214 11.5566 6.37281 11.6294C6.34348 11.7023 6.30049 11.7684 6.2463 11.8242C6.1921 11.8799 6.12776 11.9241 6.05695 11.9543C5.98614 11.9845 5.91025 12 5.8336 12C5.75696 12 5.68106 11.9845 5.61025 11.9543C5.53944 11.9241 5.4751 11.8799 5.42091 11.8242L0.171078 6.42448C0.116844 6.36876 0.0738191 6.30259 0.0444643 6.22975C0.0151094 6.15692 0 6.07884 0 6C0 5.92115 0.0151094 5.84308 0.0444643 5.77025C0.0738191 5.69741 0.116844 5.63124 0.171078 5.57552L5.42091 0.175824C5.53036 0.0632457 5.67881 -1.1862e-09 5.8336 0C5.98839 1.1862e-09 6.13684 0.0632457 6.2463 0.175824C6.35575 0.288402 6.41724 0.441091 6.41724 0.6003C6.41724 0.75951 6.35575 0.912198 6.2463 1.02478L1.99175 5.40003H13.4167C13.5714 5.40003 13.7198 5.46324 13.8292 5.57576C13.9385 5.68827 14 5.84088 14 6Z" fill="#383737"/>
</svg>
