<svg width="32" height="32" viewBox="0 0 32 32" fill="none" xmlns="http://www.w3.org/2000/svg">
<path d="M26 3H6C5.46957 3 4.96086 3.21071 4.58579 3.58579C4.21071 3.96086 4 4.46957 4 5V12C4 18.59 7.19 22.5837 9.86625 24.7738C12.7487 27.1313 15.6163 27.9312 15.7413 27.965C15.9131 28.0118 16.0944 28.0118 16.2663 27.965C16.3913 27.9312 19.255 27.1313 22.1413 24.7738C24.81 22.5837 28 18.59 28 12V5C28 4.46957 27.7893 3.96086 27.4142 3.58579C27.0391 3.21071 26.5304 3 26 3ZM26 12C26 16.6337 24.2925 20.395 20.925 23.1775C19.4591 24.3846 17.7919 25.324 16 25.9525C14.2315 25.335 12.5849 24.4123 11.135 23.2262C7.7275 20.4387 6 16.6625 6 12V5H26V12ZM10.2925 15.7075C10.1049 15.5199 9.99944 15.2654 9.99944 15C9.99944 14.7346 10.1049 14.4801 10.2925 14.2925C10.4801 14.1049 10.7346 13.9994 11 13.9994C11.2654 13.9994 11.5199 14.1049 11.7075 14.2925L14 16.5863L20.2925 10.2925C20.3854 10.1996 20.4957 10.1259 20.6171 10.0756C20.7385 10.0253 20.8686 9.99944 21 9.99944C21.1314 9.99944 21.2615 10.0253 21.3829 10.0756C21.5043 10.1259 21.6146 10.1996 21.7075 10.2925C21.8004 10.3854 21.8741 10.4957 21.9244 10.6171C21.9747 10.7385 22.0006 10.8686 22.0006 11C22.0006 11.1314 21.9747 11.2615 21.9244 11.3829C21.8741 11.5043 21.8004 11.6146 21.7075 11.7075L14.7075 18.7075C14.6146 18.8005 14.5043 18.8742 14.3829 18.9246C14.2615 18.9749 14.1314 19.0008 14 19.0008C13.8686 19.0008 13.7385 18.9749 13.6171 18.9246C13.4957 18.8742 13.3854 18.8005 13.2925 18.7075L10.2925 15.7075Z" fill="#F8F7F7"/>
</svg>
