<svg width="28" height="29" viewBox="0 0 28 29" fill="none" xmlns="http://www.w3.org/2000/svg">
<path d="M27.4153 21.4999L22.8853 16.9687L18.3278 1.93241C18.1983 1.50426 17.9652 1.11466 17.6491 0.798118C17.3331 0.481581 16.9438 0.247878 16.5159 0.117711C16.0879 -0.0124563 15.6344 -0.0350695 15.1957 0.0518747C14.7569 0.138819 14.3463 0.332636 14.0003 0.616159C13.6543 0.332636 13.2438 0.138819 12.805 0.0518747C12.3662 -0.0350695 11.9127 -0.0124563 11.4848 0.117711C11.0568 0.247878 10.6676 0.481581 10.3515 0.798118C10.0355 1.11466 9.80235 1.50426 9.67282 1.93241L5.11532 16.9699L0.585323 21.4999C0.210534 21.8749 0 22.3835 0 22.9137C0 23.4439 0.210534 23.9524 0.585323 24.3274L4.67157 28.4137C4.8573 28.5994 5.07779 28.7468 5.32048 28.8473C5.56316 28.9479 5.82327 28.9996 6.08595 28.9996C6.34863 28.9996 6.60874 28.9479 6.85142 28.8473C7.0941 28.7468 7.3146 28.5994 7.50032 28.4137L13.5353 22.3749C13.7026 22.2072 13.858 22.028 14.0003 21.8387C14.1426 22.028 14.298 22.2072 14.4653 22.3749L20.5003 28.4149C20.686 28.6007 20.9065 28.748 21.1492 28.8486C21.3919 28.9491 21.652 29.0009 21.9147 29.0009C22.1774 29.0009 22.4375 28.9491 22.6802 28.8486C22.9229 28.748 23.1433 28.6007 23.3291 28.4149L27.4153 24.3287C27.6011 24.1429 27.7484 23.9224 27.849 23.6798C27.9495 23.4371 28.0013 23.177 28.0013 22.9143C28.0013 22.6516 27.9495 22.3915 27.849 22.1488C27.7484 21.9061 27.6011 21.6856 27.4153 21.4999ZM6.08532 26.9999L2.00032 22.9149L3.58657 21.3287L7.67282 25.4149L6.08532 26.9999ZM13.0003 18.8437C13.0023 19.2381 12.926 19.6291 12.7758 19.9939C12.6256 20.3586 12.4045 20.69 12.1253 20.9687L9.08532 23.9999L5.00032 19.9149L6.70657 18.2074C6.82301 18.091 6.90889 17.9475 6.95657 17.7899L11.5816 2.51241C11.6285 2.34241 11.736 2.19543 11.8837 2.09919C12.0315 2.00294 12.2094 1.96406 12.3838 1.98988C12.5583 2.01571 12.7173 2.10444 12.8308 2.23937C12.9444 2.3743 13.0047 2.54611 13.0003 2.72241V18.8437ZM15.8753 20.9687C15.5961 20.69 15.375 20.3586 15.2248 19.9939C15.0746 19.6291 14.9983 19.2381 15.0003 18.8437V2.71866C15.0004 2.54547 15.0626 2.37805 15.1758 2.24691C15.2889 2.11577 15.4454 2.02964 15.6167 2.00419C15.788 1.97874 15.9627 2.01568 16.1091 2.10827C16.2555 2.20087 16.3637 2.34296 16.4141 2.50866L21.0391 17.7862C21.0868 17.9438 21.1726 18.0872 21.2891 18.2037L23.1003 20.0149L18.9253 24.0149L15.8753 20.9687ZM21.9153 26.9999L20.3453 25.4287L24.5191 21.4287L26.0003 22.9149L21.9153 26.9999Z" fill="#F8F7F7"/>
</svg>
