<svg  viewBox="0 0 434 128" fill="none" xmlns="http://www.w3.org/2000/svg">
<path fill-rule="evenodd" clip-rule="evenodd" d="M406.181 44.5193H415.162L415.107 58.6907H417.058L422.184 44.5193H431.903L424.927 63.2416L432.908 83.9661H422.394L417.223 68.1033H415.107L415.162 83.9661H406.181V44.5193ZM375.924 44.5193H384.851V58.7433H391.242V44.517H400.162V83.9638H391.242V68.1536H384.851V83.9638H375.924V44.5193ZM344.815 84.0164H354.11L355.222 77.1958H361.607L362.719 84.0164H372.013L364.197 44.5764H352.682L344.815 84.0164ZM358.438 56.5193L360.129 68.5238H356.693L358.438 56.5193ZM319.881 83.9661H330.761C333.136 83.9661 343.015 82.9581 343.068 71.0061C343.068 60.9718 335.413 59.2233 330.445 59.2233H328.81V53.9867H340.902V44.5216H319.881V83.9661ZM328.81 76.0324V67.0998H330.13C331.238 67.0998 334.093 67.1501 334.093 71.221C334.093 75.3513 331.238 76.0324 330.13 76.0324H328.81ZM284.446 44.5193H292.21L299.069 53.8244L305.995 44.5193H313.707V83.9661H304.561V59.9067L299.069 66.7798L293.583 59.9044V83.9661H284.446V44.5193ZM265.587 84.4438C276.415 84.4438 280.056 74.2861 280.056 64.1924C280.056 54.0964 276.415 43.941 265.587 43.941C254.763 43.941 251.119 54.0964 251.119 64.1924C251.119 74.2861 254.763 84.4438 265.587 84.4438ZM265.587 74.869C262.36 74.869 260.731 71.1204 260.731 64.1901C260.731 57.2621 262.36 53.509 265.587 53.509C268.815 53.509 270.444 57.2621 270.444 64.1924C270.444 71.1204 268.815 74.869 265.587 74.869ZM224.654 83.9661H233.791V70.9604H236.859C245.886 70.9604 248.689 62.8141 248.689 57.6256C248.689 52.5536 245.461 44.5193 236.859 44.5193H224.654V83.9661ZM233.791 53.1913H235.959C238.019 53.1913 239.342 54.4598 239.342 57.7398C239.342 61.9684 237.119 62.2816 235.959 62.2816H233.791V53.1913ZM194.498 44.5193H219.426V83.9661H210.289V54.0347H203.635V83.9638H194.498V44.5193ZM175.747 59.8038C177.223 59.8038 179.923 58.8507 179.923 55.9433C179.923 52.5078 176.807 52.2907 175.902 52.2907C174.852 52.2907 172.846 52.4553 170.889 53.4061L170.784 44.8347C173.899 44.0438 176.12 43.8313 178.755 43.8313C186.261 43.8313 189.587 49.0701 189.587 54.1924C189.587 59.1684 186.732 62.1741 183.936 63.3421V63.7101C186.631 64.565 190.22 67.1478 190.22 73.1776C190.22 80.6381 185.046 84.757 178.388 84.757C174.849 84.709 172.526 84.2313 169.726 82.6998L169.886 74.4987C172.474 75.6141 174.217 75.717 175.962 75.717C178.92 75.717 180.078 73.5456 180.078 71.9661C180.078 69.7421 178.653 68.2633 175.539 68.2633H171.839V59.8061H175.747V59.8038ZM139.839 83.9661H149.079L150.244 77.141H156.633L157.741 83.9661H166.98L159.164 44.5193H147.651L139.839 83.9661ZM153.408 56.4187L155.153 68.4736H151.665L153.408 56.4187ZM122.146 44.5193H140.888V54.3524H131.438V83.9661H122.146V44.5193ZM45.7139 18.2861C20.4962 18.2861 0 38.789 0 64.0233C0 89.2096 20.4985 109.715 45.7139 109.715C70.8745 109.715 91.3684 89.2096 91.3684 64.0233C91.3684 38.789 70.8745 18.2861 45.7139 18.2861ZM45.7139 107.429C21.7662 107.429 2.28421 87.9524 2.28421 64.0233C2.28421 40.0576 21.7571 20.5718 45.7139 20.5718C69.6227 20.5718 89.0842 40.0621 89.0842 64.0233C89.0842 87.9478 69.6159 107.429 45.7139 107.429Z" fill="#383737"/>
<path fill-rule="evenodd" clip-rule="evenodd" d="M26.9421 36.6562C37.9771 31.7419 51.4494 32.0619 58.6789 35.2848C60.9517 36.3431 62.4799 36.9831 63.172 38.2448C55.6683 36.2333 52.4476 35.8699 46.166 36.0231C37.2348 36.1831 25.3523 39.7213 20.8113 42.4253L18.8126 44.9145C25.3523 41.0425 37.5545 38.5145 44.3204 38.2996C51.872 38.1968 57.7287 38.8848 63.1194 40.8391C62.7996 42.2105 62.1144 42.9008 60.954 43.591C39.4048 39.8333 26.6748 44.2722 15.1601 51.7808L14.3196 54.2631C27.1545 45.4402 42.8882 43.0105 58.0508 45.6505C52.6098 47.5545 46.1135 47.9773 40.6748 49.2368C36.0287 50.2973 33.5458 50.6173 27.3578 52.6836C21.0831 54.7453 17.3758 56.8596 15.0574 59.5568C13.9472 60.8299 13.1021 62.3065 12.8874 63.8882C12.7891 64.8368 12.8417 65.6893 13.1615 66.5396C13.4127 67.2779 13.9975 68.0162 14.6348 68.7568C13.8993 70.023 13.2551 71.6688 14.3196 73.5728C14.7924 74.4642 16.0076 75.3625 17.1748 76.2173L16.8482 77.1613C16.6883 78.279 16.5352 79.5956 17.2753 80.7042C18.5385 82.7133 20.0712 84.039 22.4993 85.3076C22.8739 86.9488 23.4495 88.2653 24.7173 89.4356C27.4104 91.9156 33.4361 96.6745 44.1536 97.4173C52.1872 97.9499 57.9411 95.5133 60.1088 94.455L62.7471 93.0836C58.2609 94.8756 50.7093 95.9362 44.5237 95.4059C35.5467 94.6653 27.5246 88.8002 26.5195 87.1042C26.8325 87.3099 27.2573 87.4722 27.6205 87.6345C38.1347 92.7088 51.7075 95.4608 69.0858 88.375L70.518 86.999C54.7181 91.9133 40.8872 91.7602 26.0398 83.9865C26.202 83.2482 26.5195 82.6036 27.2002 82.087C31.0011 83.767 34.649 85.1499 39.0872 86.0459C44.2633 86.999 50.1771 87.2139 55.0402 86.999C59.9512 86.7888 69.666 84.3568 74.2641 81.9248C74.6844 81.5568 74.8945 80.9259 75.3148 80.4985C66.3424 83.767 55.6706 85.3076 49.2291 84.8276C42.943 84.3568 37.3512 83.6116 29.9504 80.231C31.3735 79.6528 32.8536 79.175 34.3338 78.7453C39.1923 80.231 44.1536 81.1225 50.0172 81.3922C55.8328 81.6573 69.4033 79.495 77.9577 74.3133C78.2249 73.5728 78.4876 72.7728 78.4876 72.7728C78.4876 72.7728 66.6029 79.127 53.1397 79.127C46.8513 79.127 42.9978 78.2219 40.1471 77.5362C46.4812 76.3705 54.46 75.4173 63.4324 73.1476C67.9734 71.9819 73.5743 69.335 76.1097 67.1179C78.2752 65.1568 79.9678 62.6173 79.3899 60.0368C79.2757 59.3419 78.3277 57.7122 77.165 57.1248C78.2752 55.6985 78.1701 54.4802 78.0148 53.4288C77.9051 52.6242 77.5351 51.7328 77.0668 50.9419C76.3066 49.8979 75.3304 49.0302 74.2047 48.3979C74.4243 47.2879 74.2768 46.1365 73.7844 45.1179C72.6766 43.2139 70.6733 41.5796 67.2379 39.8333C67.0803 39.1431 66.6531 38.2448 65.9199 37.3488C61.5913 33.0653 54.5102 31.0036 48.5393 30.8962C48.2082 30.8888 47.8769 30.8849 47.5457 30.8848C40.5628 30.8848 34.9574 32.4551 31.4877 34.0756C29.6832 34.8573 28.3103 35.7076 26.9421 36.6562ZM66.8107 42.4253C68.2955 43.3785 69.9858 44.807 70.1913 46.2882C68.6107 45.6985 66.9204 45.0768 65.2849 44.6493C65.8148 44.0665 66.6006 43.1682 66.8107 42.4253ZM58.8891 49.0356C60.6913 48.343 61.8997 47.6093 62.9618 46.7591C65.3305 47.3899 67.5508 48.1876 69.3553 48.9762C69.0447 49.4402 67.2356 51.1133 66.6828 51.1133C66.6545 51.1152 66.6261 51.1097 66.6006 51.0973C64.0719 50.4048 61.854 49.559 58.8891 49.0356ZM73.1014 51.1476C74.5245 52.3636 74.9448 53.2093 74.2618 54.5328C73.3162 53.847 72.3042 53.4745 71.201 52.9465C71.8817 52.4162 72.519 51.8402 73.1014 51.1476ZM29.2126 56.0162C35.814 54.0505 43.5255 52.5808 50.5014 51.7328C55.2983 51.1476 57.8406 51.6825 62.3839 52.8962C50.7116 56.0139 39.1923 57.0128 28.2053 60.2425C19.3494 62.8185 16.9989 66.0619 16.9624 66.0619C13.0472 60.6676 26.62 56.8139 29.2126 56.0162ZM35.4485 62.5145C45.2135 60.4002 54.3001 59.0813 58.0485 58.1305C62.5941 57.0128 65.7623 55.9613 67.9734 54.9076C68.0807 54.7476 71.6715 56.4893 72.0393 56.9053C70.8286 57.9156 69.1429 58.7659 67.2881 59.3922C61.7443 61.4036 51.6595 63.5156 46.3259 64.3225C40.9375 65.2162 36.4398 65.8996 30.4803 67.479C27.0426 68.3865 24.7173 69.4425 23.027 70.5556C21.7592 69.8128 21.0214 69.6048 19.861 68.6493C23.9795 65.1568 32.3808 63.2025 35.4462 62.5145H35.4485ZM33.0067 71.0859C42.3034 68.8025 50.4969 68.3842 61.7992 65.3213C67.2356 63.8882 71.1987 62.3499 73.6839 60.4573C74.0494 60.1328 74.4171 59.8722 74.7917 59.5568C78.065 64.6311 65.76 68.5442 57.3564 70.3499C52.708 71.2916 46.2642 72.4528 44.1513 72.8299C38.6692 73.7282 36.8624 74.2059 33.0615 75.3145C31.161 74.5716 29.2583 73.7785 27.5223 72.8779C29.2583 72.1396 31.161 71.5568 33.0044 71.0882L33.0067 71.0859ZM20.1237 72.7728C19.7537 73.0928 19.2763 73.4128 18.9085 73.7785C18.0679 73.2985 17.2182 72.2516 17.6385 71.2916C18.4837 71.8265 19.1164 72.2516 20.1237 72.7728ZM23.9772 74.7385C25.5624 75.479 27.1979 76.1556 28.7284 76.8482C27.6991 77.2247 26.7103 77.7041 25.7772 78.279C24.5164 77.5907 23.2661 76.8836 22.0265 76.1579C22.5541 75.6825 23.2371 75.2093 23.9772 74.7362V74.7385ZM23.349 80.2836C22.9767 80.8139 22.7095 81.2322 22.5564 81.767C21.2316 80.6539 20.5943 79.7556 20.6514 78.7476C21.5491 79.3305 22.4468 79.8036 23.3468 80.2836H23.349Z" fill="#383737"/>
</svg>
