<svg width="434" height="88" viewBox="0 0 434 88" fill="none" xmlns="http://www.w3.org/2000/svg">
<path d="M38.0392 87.5433C33.9045 86.9636 26.9918 84.6613 23.1357 82.5799C11.5944 76.352 3.45298 65.4187 0.67494 52.4159C-0.222465 48.2204 -0.225476 39.7569 0.668917 35.5749C3.71949 21.2956 13.4193 9.36901 26.516 3.79339C36.8452 -0.603654 47.465 -1.18182 57.9703 2.07816C65.7353 4.48867 71.2537 7.91321 77.123 13.9632C85.1424 22.231 89.2138 32.3356 89.2138 43.982C89.2138 55.6284 85.1424 65.73 77.123 74.0008C71.2657 80.0375 65.7338 83.4739 58.0155 85.871C51.2864 87.9599 44.8435 88.4995 38.0392 87.5433ZM54.8068 85.2247C66.8073 82.4836 77.7147 73.9133 83.4485 62.7206C84.117 61.416 85.2764 58.5341 86.0262 56.3163C87.3136 52.5063 87.3889 51.8273 87.3889 43.982C87.3889 36.1367 87.3136 35.4577 86.0262 31.6478C81.9247 19.5062 73.8224 10.4824 62.3339 5.2566C52.4413 0.755783 39.8927 0.346617 29.3663 4.18032C16.905 8.71671 6.56529 19.8902 2.75583 32.9375C1.84638 36.0493 1.67774 37.7838 1.67774 43.982C1.67774 50.1788 1.84638 51.9133 2.75583 55.0265C5.19208 63.367 10.9544 71.9832 17.4335 76.9732C28.5366 85.5271 41.2223 88.329 54.8068 85.2247ZM40.1171 76.266C31.7137 74.9585 23.2907 70.3287 21.4327 65.9939C21.0864 65.186 20.0309 64.0548 19.0868 63.4796C16.8403 62.1128 15.3933 59.7482 15.3933 57.4444C15.3933 55.9961 15.0711 55.3023 13.8891 54.2037C12.4978 52.911 12.4059 52.6293 12.6393 50.4012C12.8125 48.7467 12.68 47.709 12.2147 47.0834C10.5735 44.873 12.2162 40.1735 15.4896 37.72C20.579 33.9056 30.5076 30.868 47.6758 27.8763C50.7233 27.3456 53.8672 26.723 54.6623 26.4917C57.5517 25.6511 54.3551 25.2434 45.0257 25.2583C37.1719 25.2716 35.2536 25.4243 31.5345 26.3405C25.7044 27.7755 22.7261 28.9007 17.4621 31.6596C13.5443 33.7129 13.073 33.8611 13.4118 32.9346C14.2595 30.6263 23.893 25.9951 32.1323 23.9359C35.8032 23.0167 37.5423 22.8833 45.5075 22.9204C50.5426 22.9426 55.7238 23.1872 57.0217 23.4615C59.2276 23.9285 59.458 23.884 60.5737 22.7855C61.2302 22.1406 61.578 21.4394 61.3461 21.2289C60.2319 20.2163 54.1383 19.2157 47.617 18.9755C42.1814 18.7739 39.429 18.9014 35.5759 19.5359C29.4551 20.544 23.3645 22.2473 20.1543 23.8484C17.816 25.0151 17.7603 25.0196 18.2948 24.0352C19.4512 21.9108 28.6466 18.7012 37.9895 17.1639C43.8889 16.1914 51.7321 16.39 57.225 17.6472C59.1658 18.0919 60.8643 18.344 61.0013 18.2105C61.4334 17.7851 58.9294 16.4316 55.2871 15.124C51.9625 13.9306 51.3105 13.8639 43.3393 13.8935C35.74 13.9202 34.5143 14.0418 30.9322 15.124C28.7459 15.7837 26.9572 16.2537 26.9572 16.1677C26.9572 15.7733 30.9006 14.0966 33.9497 13.1938C45.9171 9.64771 60.4592 12.2836 64.8951 18.8006C65.5019 19.693 66.7004 20.8345 67.5572 21.3386C70.2855 22.9397 72.2219 25.0893 72.5456 26.8727C72.7142 27.8037 73.4746 29.175 74.2335 29.9221C76.0133 31.6715 76.9061 34.4408 76.1427 35.8447C75.685 36.6852 75.7723 37.1048 76.6426 38.2641C78.5323 40.7813 77.6786 43.945 74.3284 46.8402C71.9117 48.9305 65.7232 51.7369 60.8312 52.9629C57.5005 53.7961 41.2343 56.7581 39.7256 56.804C39.4606 56.8129 39.6127 57.0308 40.0644 57.2903C40.5161 57.5497 43.1707 58.0137 45.9623 58.3206C54.4695 59.256 64.3154 57.6876 73.3331 53.9576C75.1219 53.2179 76.5854 52.7894 76.5854 53.0074C76.5854 54.3979 69.3249 57.4504 61.8897 59.1834C52.9186 61.2737 45.1326 61.2722 36.5034 59.1745C33.6771 58.4881 32.3928 58.3829 31.0979 58.7357C28.5306 59.4324 28.6149 59.9439 31.4728 60.9965C42.7084 65.1356 55.6681 65.2571 69.367 61.3493C73.8902 60.0595 74.3269 60.7341 70.0597 62.4182C57.8107 67.2511 41.945 67.5683 30.1794 63.2128C26.2224 61.7481 25.6758 61.6502 25.0298 62.2936C24.3869 62.9356 24.4095 63.0912 25.2436 63.699C26.5356 64.6419 33.1637 67.1176 37.5423 68.2933C40.4724 69.079 42.6542 69.2717 48.8803 69.288C56.3607 69.3088 58.7352 69.0063 66.9489 66.9798C68.1203 66.6907 68.1278 66.7025 67.1988 67.4423C66.0394 68.3659 60.1009 70.2546 55.8457 71.0551C51.565 71.8601 42.8274 71.8646 38.7619 71.0655C35.4976 70.4236 31.1807 69.0938 27.1981 67.5001L25.2708 66.7292L26.9572 68.1969C29.678 70.5629 36.1013 73.3841 40.5613 74.1713C44.9534 74.9481 51.4325 74.7198 56.2327 73.6228C57.749 73.2744 59.0544 73.0535 59.1327 73.1306C59.342 73.3381 54.4786 75.172 52.2516 75.7249C49.4359 76.4276 42.996 76.7138 40.1171 76.266ZM21.657 60.0996C21.657 59.5466 19.7342 58.5252 19.3684 58.8839C18.9678 59.2798 20.7431 61.0854 21.2385 60.783C21.4688 60.6436 21.657 60.3353 21.657 60.0996ZM25.9935 57.0427L27.1981 56.38L24.9139 55.3793C23.092 54.5803 22.428 54.4869 21.6209 54.9109C20.5097 55.4965 20.5609 55.6091 22.4957 56.8307C24.1249 57.8595 24.4712 57.8803 25.9935 57.0427ZM33.4242 54.4335C34.1018 54.1785 39.8069 53.0133 46.1023 51.8421C62.9271 48.7141 70.1726 46.3629 72.6811 43.223C73.6448 42.0162 73.9836 40.6301 73.4445 40.0994C73.3075 39.9645 71.3019 40.7784 68.9876 41.908C63.9691 44.3586 56.9208 46.185 43.7594 48.4458C33.9211 50.1358 26.4738 51.8881 26.4738 52.5137C26.4738 52.8947 30.6386 54.7878 31.6234 54.8545C31.9365 54.8753 32.7481 54.687 33.4242 54.4335ZM18.2842 52.5093C18.2842 51.9563 16.3615 50.9349 15.9956 51.2936C15.595 51.6894 17.3703 53.4951 17.8657 53.1927C18.096 53.0533 18.2842 52.7465 18.2842 52.5107V52.5093ZM23.61 49.187C26.4708 47.749 33.3865 46.0708 43.0984 44.4534C47.8685 43.6603 54.4816 42.3602 57.7941 41.5656C64.1106 40.049 70.4993 37.5332 70.01 36.7519C69.8504 36.4999 69.0057 36.0003 68.1293 35.6401C66.6613 35.0352 66.1539 35.1064 61.5644 36.577C58.8271 37.4517 54.5298 38.5309 52.0122 38.9742C40.4784 41.0007 32.1669 42.7041 28.4026 43.813C24.2378 45.039 18.7661 47.5874 18.7661 48.302C18.7661 48.6133 20.9539 50.0483 21.5547 50.1299C21.6314 50.1402 22.556 49.7148 23.61 49.187ZM21.1075 42.2297C25.1608 40.4582 31.0662 38.9223 40.8308 37.0989C53.7573 34.6839 59.4248 33.4905 59.866 33.0887C60.3825 32.6188 55.3398 31.6478 52.3811 31.6478C48.3669 31.6478 39.5841 33.0843 31.914 34.9937C20.7371 37.7778 14.9115 40.8525 14.9115 43.9672C14.9115 45.8574 15.3586 45.9923 17.0255 44.6047C17.8506 43.9198 19.6876 42.8494 21.1075 42.2297ZM72.5381 32.856C72.1963 31.5173 71.2281 31.2846 70.3473 32.3267C69.8835 32.8782 70.0311 33.1391 71.1317 33.7084C72.7579 34.549 72.9416 34.4363 72.5381 32.856ZM66.3586 30.4351C66.9489 30.0289 67.4307 29.5145 67.4307 29.2921C67.4307 29.0697 66.1268 28.4545 64.5352 27.9252L61.6397 26.9616L59.6703 28.0646L57.7008 29.1661L60.7589 30.1193C64.5985 31.3172 65.0426 31.3424 66.3586 30.4351ZM68.3944 26.044C68.3944 25.832 67.7514 25.0507 66.9654 24.3095C65.7563 23.1694 65.4221 23.0583 64.7821 23.5816C63.7251 24.4444 64.0835 25.0804 66.0138 25.7668C68.0556 26.4932 68.3944 26.5332 68.3944 26.044ZM123.187 63.3877C120.462 62.7562 118.869 61.8089 116.868 59.6296C113.566 56.0302 112.018 50.8978 112.077 43.7448C112.159 33.9056 116.22 27.5042 123.785 25.2924C125.215 24.8743 127.286 24.5318 128.382 24.5318C130.622 24.5318 135.066 25.6941 136.663 26.6978L137.717 27.3604L136.474 31.0459C135.79 33.0724 135.164 34.8114 135.079 34.9092C134.995 35.0071 134.001 34.7224 132.87 34.2777C131.74 33.8315 129.675 33.4401 128.283 33.4089C126.096 33.3585 125.548 33.5409 124.277 34.7387C122.145 36.7505 121.215 40.3277 121.507 45.3874C121.871 51.6731 123.803 54.6678 127.272 54.3268C129.055 54.1533 130.363 52.5686 130.82 50.0305L131.139 48.2516H126.214V41.1356H139.353L139.092 46.947C138.774 54.0599 137.632 57.7439 134.875 60.5414C132.054 63.4025 127.759 64.4477 123.186 63.3877H123.187ZM170.542 63.0853C170.542 62.8837 172.897 56.2688 175.777 48.385L181.011 34.0494L175.898 33.916L170.783 33.7825L170.644 29.3944L170.506 25.0062H181.606C187.71 25.0062 192.703 25.1663 192.7 25.362C192.697 25.5577 190.541 32.1222 187.909 39.9497L183.121 54.1815L188.413 54.3149L193.704 54.4483L193.567 58.8217L193.429 63.195L181.985 63.321C175.691 63.3922 170.542 63.2869 170.542 63.0853ZM260.719 62.1958C257.486 60.6081 255.154 57.6149 253.766 53.2668C252.23 48.4636 252.23 39.499 253.766 34.6957C255.935 27.9045 260.224 24.5215 266.639 24.5407C275.945 24.5704 280.88 31.3068 280.88 43.982C280.88 56.6572 275.946 63.3922 266.639 63.4218C263.929 63.4292 262.731 63.1816 260.721 62.1943L260.719 62.1958ZM269.287 53.0978C272.452 49.9816 272.452 37.9824 269.287 34.8647C267.63 33.234 265.804 33.1643 264.274 34.6705C262.679 36.2405 262.094 38.7414 262.094 43.9805C262.094 49.2196 262.681 51.7221 264.274 53.2935C265.804 54.7982 267.63 54.7285 269.285 53.0978H269.287ZM347.352 62.857C347.34 62.5205 349.017 53.8672 351.077 43.6262L354.826 25.0062H360.462C365.413 25.0062 366.129 25.107 366.349 25.8364C366.596 26.6488 373.873 62.811 373.873 63.2232C373.873 63.3373 371.833 63.4307 369.34 63.4307H364.806L364.234 60.0907L363.662 56.7492L360.454 56.8885L357.25 57.0279L356.768 60.1114L356.287 63.195L351.83 63.3314C348.452 63.4352 347.367 63.3195 347.352 62.857ZM362.159 47.1842C362.02 46.5971 361.63 44.1451 361.295 41.739C360.959 39.333 360.602 37.4398 360.504 37.5362C360.293 37.7437 358.958 46.2161 358.944 47.4214C358.938 48.0588 359.336 48.2516 360.676 48.2516C362.231 48.2516 362.386 48.1389 362.159 47.1842ZM141.131 62.602C141.119 62.4063 142.796 53.8672 144.857 43.6262L148.604 25.0062H154.265C159.735 25.0062 159.933 25.0418 160.183 26.0736C160.464 27.23 167.651 62.5961 167.651 62.8214C167.651 62.8955 165.609 62.9578 163.113 62.9578H158.574L158.32 61.6532C158.114 60.5423 157.925 59.4283 157.754 58.3117L157.442 56.2748L154.235 56.4141L151.028 56.5535L150.611 59.7556L150.194 62.9578H145.672C143.186 62.9578 141.141 62.7977 141.131 62.602ZM155.763 47.8958C155.881 47.7001 155.602 45.1917 155.144 42.3216C154.244 36.6852 154.259 36.6763 153.201 43.5076C152.485 48.1256 152.508 48.2516 154.133 48.2516C154.911 48.2516 155.646 48.0915 155.763 47.8958ZM198.008 43.982V25.0062L205.355 25.0166C213.864 25.0285 215.504 25.4999 218.33 28.7525C221.768 32.7048 222.477 38.5976 220.157 43.9079C218.238 48.299 214.334 50.6235 208.876 50.6235H206.681V62.9578H198.008V43.982ZM211.222 41.3387C212.241 40.3351 212.637 38.5873 212.303 36.5607C211.905 34.1487 211.202 33.5453 208.788 33.5453H206.681V42.0844H208.573C209.65 42.0844 210.791 41.7627 211.223 41.3387H211.222ZM224.99 43.982V25.0062H232.041C240.408 25.0062 242.34 25.4673 245.031 28.112C249.753 32.7537 249.766 40.6983 245.063 46.182L243.786 47.6704L247.398 55.1199C249.382 59.2175 251.009 62.6569 251.009 62.7636C251.009 62.8703 248.75 62.9563 245.992 62.9563H240.975L239.74 59.7542C238.935 57.661 238.136 55.5657 237.343 53.4684C236.47 51.1602 235.923 50.3478 235.161 50.2336C234.169 50.0854 234.145 50.2381 234.145 56.5194V62.9578H224.99V43.982ZM238.481 41.1356C239.175 40.4507 239.445 39.5538 239.445 37.9187C239.445 34.801 238.469 33.5453 236.045 33.5453H234.145V42.0844H235.831C236.875 42.0844 237.883 41.7227 238.481 41.1356ZM285.7 43.982V25.0062H293.319L296.489 29.2758C298.232 31.624 299.825 33.5409 300.027 33.5364C300.23 33.532 301.804 31.6092 303.525 29.2669L306.654 25.0062H314.61V62.9578H305.472L305.342 51.5293L305.214 40.1024L302.608 43.3045L300.002 46.5067L298.511 44.661C297.606 43.5448 296.673 42.4513 295.712 41.3817L294.402 39.9497L294.387 51.4537L294.373 62.9578H285.7V43.982ZM320.392 43.9509V24.944L328.463 25.0922C335.247 25.2197 336.83 25.3887 338.396 26.1537C343.742 28.7673 345.078 36.3042 341.068 41.2454L339.632 43.0169L341.766 45.042C347.276 50.2663 345.349 59.769 338.277 62.2254C336.708 62.771 334.159 62.9578 328.28 62.9578H320.39L320.392 43.9509ZM334.365 53.4684C334.955 52.8888 335.329 51.8881 335.329 50.8874C335.329 48.8119 333.93 47.7772 331.125 47.7772H329.065V54.4187H331.233C332.758 54.4187 333.687 54.1355 334.365 53.4684ZM333.293 38.9742C334.011 38.479 334.365 37.7467 334.365 36.7579C334.365 34.672 333.156 33.5453 330.917 33.5453H329.065V39.7125H330.643C331.512 39.7125 332.706 39.3804 333.293 38.9742ZM377.248 43.982V25.0062H384.951L389.265 33.4267L393.579 41.8472L393.604 33.4267L393.63 25.0062H402.303V62.9578H394.827L390.733 54.4365L386.642 45.9167L386.509 54.4365L386.378 62.9578H377.246V43.982H377.248ZM408.085 43.982V25.0062H416.757V31.885C416.757 38.3619 416.812 38.7637 417.686 38.7637C418.661 38.7637 418.707 38.6614 422.098 29.3944L423.705 25.0062H428.422C431.017 25.0062 433.14 25.0804 433.14 25.1723C433.14 25.2642 431.62 29.3232 429.765 34.1932L426.391 43.0466L430.065 52.4085L433.98 62.3811C434.167 62.86 433.1 62.9622 429.02 62.8555L423.822 62.7206L421.336 55.3675C419.219 49.1084 418.694 47.9907 417.802 47.8617C416.767 47.7134 416.757 47.7801 416.757 55.3334V62.9578H408.085V43.982Z" fill="#383737"/>
</svg>
