<svg width="32" height="32" viewBox="0 0 32 32" fill="none" xmlns="http://www.w3.org/2000/svg">
<path d="M27.4978 21.5339L23.6151 17.6277L19.7088 4.66582C19.5978 4.29673 19.398 3.96088 19.1271 3.68801C18.8562 3.41514 18.5226 3.21368 18.1558 3.10147C17.789 2.98926 17.4003 2.96977 17.0243 3.04472C16.6482 3.11967 16.2963 3.28675 15.9997 3.53116C15.7032 3.28675 15.3513 3.11967 14.9752 3.04472C14.5991 2.96977 14.2105 2.98926 13.8437 3.10147C13.4769 3.21368 13.1432 3.41514 12.8723 3.68801C12.6014 3.96088 12.4016 4.29673 12.2906 4.66582L8.38436 17.6288L4.50168 21.5339C4.18045 21.8572 4 22.2955 4 22.7526C4 23.2096 4.18045 23.648 4.50168 23.9713L8.00402 27.4938C8.16321 27.6539 8.3522 27.781 8.5602 27.8676C8.7682 27.9543 8.99114 27.9989 9.21629 27.9989C9.44144 27.9989 9.66438 27.9543 9.87238 27.8676C10.0804 27.781 10.2694 27.6539 10.4286 27.4938L15.6012 22.2881C15.7446 22.1436 15.8777 21.9891 15.9997 21.8259C16.1217 21.9891 16.2549 22.1436 16.3983 22.2881L21.5709 27.4949C21.7301 27.655 21.9191 27.7821 22.1271 27.8687C22.3351 27.9554 22.558 28 22.7832 28C23.0083 28 23.2313 27.9554 23.4393 27.8687C23.6473 27.7821 23.8363 27.655 23.9954 27.4949L27.4978 23.9724C27.657 23.8123 27.7833 23.6222 27.8695 23.413C27.9556 23.2038 28 22.9796 28 22.7531C28 22.5267 27.9556 22.3024 27.8695 22.0932C27.7833 21.884 27.657 21.694 27.4978 21.5339ZM9.21575 26.2751L5.71448 22.7536L7.07407 21.3862L10.5764 24.9088L9.21575 26.2751ZM15.1426 19.2441C15.1443 19.5841 15.0789 19.9211 14.9502 20.2356C14.8215 20.55 14.632 20.8356 14.3927 21.0759L11.7871 23.689L8.2858 20.1675L9.74823 18.6956C9.84803 18.5952 9.92164 18.4716 9.96251 18.3357L13.9266 5.16581C13.9668 5.01926 14.0589 4.89256 14.1856 4.80959C14.3122 4.72662 14.4647 4.69311 14.6142 4.71537C14.7638 4.73763 14.9 4.81412 14.9974 4.93044C15.0947 5.04675 15.1464 5.19486 15.1426 5.34683V19.2441ZM17.6068 21.0759C17.3675 20.8356 17.178 20.55 17.0493 20.2356C16.9205 19.9211 16.8551 19.5841 16.8568 19.2441V5.3436C16.8569 5.1943 16.9102 5.04999 17.0072 4.93694C17.1042 4.82389 17.2383 4.74963 17.3851 4.7277C17.5319 4.70576 17.6817 4.7376 17.8072 4.81742C17.9326 4.89724 18.0254 5.01973 18.0686 5.16257L22.0327 18.3324C22.0735 18.4683 22.1471 18.592 22.2469 18.6923L23.7994 20.2537L20.221 23.7019L17.6068 21.0759ZM22.7837 26.2751L21.4381 24.9206L25.0154 21.4724L26.285 22.7536L22.7837 26.2751Z" fill="#F8F7F7"/>
</svg>
