<svg  viewBox="0 0 217 107" fill="none" xmlns="http://www.w3.org/2000/svg">
<path d="M88.0227 0.229217C82.4655 0.635164 64.7393 2.98966 63.4007 3.51739C62.8328 3.72037 62.4678 4.20751 62.4678 4.69464C62.4678 5.42535 62.6706 5.50654 63.8064 5.30356C67.9033 4.65405 78.0847 3.4362 83.3579 2.98966C91.7951 2.29955 125.26 2.29955 133.454 2.98966C139.214 3.4768 149.598 4.77583 152.843 5.34416C153.979 5.54713 154.141 5.50654 154.141 4.73524C154.141 3.55799 153.37 3.31442 146.028 2.29955C130.736 0.188622 130.614 0.188622 111.347 0.0262427C101.084 -0.0549469 90.5782 0.0668373 88.0227 0.229217Z" fill="#383737"/>
<path d="M107.736 3.67983C107.615 4.00459 107.249 4.16697 106.884 4.04519C106.519 3.88281 106.276 4.04519 106.276 4.41054C106.276 4.77589 105.911 5.18184 105.465 5.30363C105.018 5.42541 104.653 5.70957 104.653 5.91255C104.653 6.11552 104.532 6.60266 104.369 7.00861C104.126 7.65812 104.167 7.69872 104.856 7.13039C105.505 6.56206 105.546 6.60266 105.302 7.37396C104.856 8.79478 106.235 10.0532 108.182 10.1344C109.927 10.175 112.076 9.28192 111.711 8.67299C111.59 8.47002 111.671 8.10467 111.874 7.8205C112.482 7.0492 112.158 5.30363 111.427 5.18184C111.062 5.10065 110.738 4.77589 110.738 4.41054C110.738 4.04519 110.495 3.88281 110.17 4.00459C109.845 4.12638 109.359 3.964 109.115 3.63924C108.466 2.90853 108.061 2.90853 107.736 3.67983Z" fill="#383737"/>
<path d="M101.003 7.73947C101.408 8.26721 101.368 8.3484 100.638 8.3484C98.9745 8.3484 99.8263 8.95732 101.611 9.03851L103.436 9.0791L102.26 8.10483C100.962 7.00877 100.232 6.80579 101.003 7.73947Z" fill="#383737"/>
<path d="M102.423 7.53741C102.544 7.74039 102.828 7.94336 103.072 7.94336C103.275 7.94336 103.437 7.74039 103.437 7.53741C103.437 7.29384 103.153 7.13146 102.788 7.13146C102.463 7.13146 102.301 7.29384 102.423 7.53741Z" fill="#383737"/>
<path d="M112.969 7.53741C112.847 7.74039 113.01 7.94336 113.334 7.94336C113.659 7.94336 114.064 7.74039 114.186 7.53741C114.308 7.29384 114.145 7.13146 113.821 7.13146C113.496 7.13146 113.091 7.29384 112.969 7.53741Z" fill="#383737"/>
<path d="M114.307 8.14542L113.252 9.0791L115.199 9.03851C116.295 9.03851 117.106 8.87613 116.984 8.67315C116.863 8.51077 116.538 8.3484 116.214 8.3484C115.93 8.3484 115.605 8.10483 115.524 7.78007C115.443 7.33353 115.159 7.41472 114.307 8.14542Z" fill="#383737"/>
<path d="M33.4647 9.97232L5.07031 10.1753L33.5864 10.3783C58.5734 10.5406 63.5627 10.4595 62.1836 9.89113C61.9807 9.80994 49.0816 9.85054 33.4647 9.97232Z" fill="#383737"/>
<path d="M154.263 10.0539C154.181 10.2569 166.999 10.3381 182.819 10.2975C198.598 10.2163 206.995 10.1351 201.397 10.0945C175.031 9.81033 154.465 9.81033 154.263 10.0539Z" fill="#383737"/>
<path d="M93.0927 11.8404C91.9975 11.9216 88.0629 12.1652 84.3716 12.4088C73.0138 13.1801 63.7248 14.3979 62.6702 15.2504C62.3457 15.494 51.7992 15.6969 33.8296 15.7375L5.4758 15.8593L5.35411 17.7673L5.23242 19.7158H108.304H211.376L211.254 17.7673L211.132 15.8593L182.778 15.7781C166.878 15.7375 154.303 15.5346 154.181 15.3316C153.735 14.6415 145.947 13.5048 135.279 12.5711C128.505 12.0028 98.4065 11.4751 93.0927 11.8404Z" fill="#383737"/>
<path d="M39.8739 22.0698C20.2413 22.1104 9.73535 22.3134 9.73535 22.5569C9.73535 22.8411 20.2818 22.9629 40.1579 22.9629C67.2948 22.9629 72.0813 22.8411 70.2965 22.0698C70.0937 21.9886 56.4238 21.9886 39.8739 22.0698Z" fill="#383737"/>
<path d="M72.7707 22.1108C72.6896 22.192 72.7302 22.4356 72.8518 22.5979C73.1358 23.0851 82.7493 23.0445 82.7493 22.5979C82.7493 22.2326 73.1358 21.7455 72.7707 22.1108Z" fill="#383737"/>
<path d="M85.8321 22.0698C85.467 22.151 85.1831 22.3946 85.1831 22.5975C85.1831 22.8005 87.333 22.9629 90.0507 22.9629C92.809 22.9629 94.9183 22.8005 94.9183 22.5975C94.9183 22.2322 87.2518 21.7856 85.8321 22.0698Z" fill="#383737"/>
<path d="M126.477 22.0698C119.987 22.2322 120.23 22.9629 126.761 22.9629C129.641 22.9629 131.831 22.8005 131.831 22.5975C131.831 21.9886 131.507 21.948 126.477 22.0698Z" fill="#383737"/>
<path d="M133.859 22.4352C133.859 22.8411 135.157 22.9629 138.929 22.9629C141.85 22.9629 144 22.8005 144 22.5975C144 22.354 141.728 22.151 138.929 22.0698C135.076 21.9886 133.859 22.0698 133.859 22.4352Z" fill="#383737"/>
<path d="M97.3521 22.5569C97.3521 22.8005 99.218 22.9629 102.179 22.9629C104.978 22.9629 107.128 22.8005 107.29 22.5569C107.452 22.3134 105.749 22.151 102.463 22.151C99.3397 22.151 97.3521 22.3134 97.3521 22.5569Z" fill="#383737"/>
<path d="M109.521 22.5569C109.521 22.8005 111.387 22.9629 114.349 22.9629C117.147 22.9629 119.297 22.8005 119.46 22.5569C119.622 22.3134 117.918 22.151 114.632 22.151C111.509 22.151 109.521 22.3134 109.521 22.5569Z" fill="#383737"/>
<path d="M146.028 22.5569C146.028 22.8411 156.453 22.9629 176.451 22.9629C196.449 22.9629 206.873 22.8411 206.873 22.5569C206.873 22.2728 196.449 22.151 176.451 22.151C156.453 22.151 146.028 22.2728 146.028 22.5569Z" fill="#383737"/>
<path d="M12.5747 60.9193V96.8457H36.5071H60.4395V60.9193V24.9929H36.5071H12.5747V60.9193ZM58.3302 61.4065L58.2085 95.8308L35.8175 95.912L13.386 96.0338V61.5282V27.0227H35.8986H58.4113L58.3302 61.4065Z" fill="#383737"/>
<path d="M19.4707 30.6762C19.4707 30.9197 25.0684 31.0821 35.4932 31.0821H51.5158V58.9301C51.5158 77.3602 51.6375 86.6564 51.9214 86.494C52.2054 86.3316 52.327 76.4671 52.327 58.24V30.2702H35.8989C25.2307 30.2702 19.4707 30.392 19.4707 30.6762Z" fill="#383737"/>
<path d="M62.6701 25.4805C62.5484 25.7646 62.5079 41.8808 62.5484 61.3257L62.6701 96.6432L65.6312 96.7649L68.5518 96.8867V60.9197V24.9933H65.7124C63.8059 24.9933 62.7918 25.1557 62.6701 25.4805Z" fill="#383737"/>
<path d="M74.8395 25.4805C74.7178 25.7646 74.6773 41.8808 74.7178 61.3257L74.8395 96.6432L77.8007 96.7649L80.7212 96.8867V60.9197V24.9933H77.8818C75.9753 24.9933 74.9612 25.1557 74.8395 25.4805Z" fill="#383737"/>
<path d="M87.0085 25.4805C86.8868 25.7646 86.8462 41.8808 86.8868 61.3257L87.0085 96.6432L89.9696 96.7649L92.8902 96.8867V60.9197V24.9933H90.0507C88.1443 24.9933 87.1302 25.1557 87.0085 25.4805Z" fill="#383737"/>
<path d="M99.3804 60.9193V96.8457H102.22H105.059V60.9193V24.9929H102.22H99.3804V60.9193Z" fill="#383737"/>
<path d="M111.549 60.9197V96.8867L114.51 96.7649L117.431 96.6432V60.9197V25.1963L114.51 25.0745L111.549 24.9528V60.9197Z" fill="#383737"/>
<path d="M123.719 60.9197V96.8867L126.68 96.7649L129.6 96.6432V60.9197V25.1963L126.68 25.0745L123.719 24.9528V60.9197Z" fill="#383737"/>
<path d="M135.968 60.798L136.09 96.6432L139.051 96.7649L141.972 96.8867V60.9197V24.9933H138.929H135.887L135.968 60.798Z" fill="#383737"/>
<path d="M148.259 25.4805C148.138 25.7646 148.097 41.8808 148.138 61.3257L148.259 96.6432L151.221 96.7649L154.141 96.8867V60.9197V24.9933H151.302C149.395 24.9933 148.381 25.1557 148.259 25.4805Z" fill="#383737"/>
<path d="M156.412 25.3581C156.29 25.5611 156.209 41.6772 156.29 61.1627L156.372 96.6426H180.304H204.236L204.358 60.7974L204.439 24.9928H180.547C166.837 24.9928 156.534 25.1552 156.412 25.3581ZM203.425 61.5281V95.8307H180.912H158.4L158.278 61.4063L158.197 27.0225L180.791 27.1037L203.425 27.2255V61.5281Z" fill="#383737"/>
<path d="M164.646 30.4329C164.281 30.8389 164.727 86.7379 165.092 86.4943C165.336 86.3319 165.498 76.3456 165.498 58.6463V31.0824H181.318C191.58 31.0824 197.137 30.9201 197.137 30.6765C197.137 30.2705 165.052 30.0676 164.646 30.4329Z" fill="#383737"/>
<path d="M0 102.935V106.994H21.093H42.1859V105.37V103.747H45.2282H48.2704L48.1893 102.407L48.0676 101.108L51.1099 100.905C53.8682 100.702 54.1521 100.621 54.2738 99.7683L54.3955 98.8752H27.218H0V102.935Z" fill="#383737"/>
<path d="M56.464 99.7686L56.5857 100.702L108.426 100.824L160.225 100.905V99.8904V98.8755H108.263H56.3423L56.464 99.7686Z" fill="#383737"/>
<path d="M162.335 99.7683C162.456 100.621 162.74 100.702 165.499 100.905L168.5 101.108L168.541 102.326V103.544L171.583 103.747L174.625 103.95L174.747 105.452L174.869 106.994H195.759H216.608V102.935V98.8752H189.39H162.213L162.335 99.7683Z" fill="#383737"/>
<path d="M50.5828 102.001C50.4205 102.123 50.2988 102.61 50.2988 103.016C50.2988 103.706 52.327 103.747 108.345 103.747H166.351L166.229 102.813L166.107 101.92L108.467 101.799C76.7867 101.758 50.7045 101.839 50.5828 102.001Z" fill="#383737"/>
<path d="M44.2139 105.979V106.994H108.304H172.394V105.979V104.964H108.304H44.2139V105.979Z" fill="#383737"/>
</svg>
