<svg viewBox="0 0 177 122" fill="none" xmlns="http://www.w3.org/2000/svg">
<path d="M48.9308 9.01424C46.0419 19.8311 34.6669 43.9889 26.7225 55.5269C23.4725 60.2142 16.7919 68.3269 11.7363 73.7354C6.86135 79.1438 4.15301 83.11 5.95857 82.3889C30.8752 73.1945 79.6253 72.2931 111.042 80.5861C113.028 80.9466 110.681 78.603 105.625 75.1776C93.528 66.8847 72.7641 44.5297 65.1808 31.91C61.9308 26.141 57.4169 16.7663 55.2502 10.8171L51.278 0.000152588L48.9308 9.01424Z" fill="#383737"/>
<path d="M108.875 40.2025C106.708 43.2673 102.375 47.5941 99.486 49.5772L94.0693 53.1828L98.0416 57.3293C105.625 65.442 127.292 80.9462 141.736 88.518L156.18 96.0898L144.986 85.4532C132.347 73.1941 120.792 56.0673 116.458 43.087C114.833 38.2194 113.389 34.2532 113.208 34.2532C113.028 34.2532 111.042 36.9574 108.875 40.2025Z" fill="#383737"/>
<path d="M40.625 83.1097C27.4444 84.9126 0 91.7633 0 93.2055C0 93.7464 8.66667 93.5661 19.5 92.8449C42.0694 91.4027 77.6389 94.1069 103.819 99.3351C121.153 102.941 156 113.577 170.264 119.707C173.875 121.329 176.944 122.231 176.944 121.87C176.944 119.346 142.639 98.7942 130.722 94.1069C104.361 84.0111 67.3472 79.5041 40.625 83.1097Z" fill="#383737"/>
</svg>
