<svg  viewBox="0 0 40 53" fill="none" xmlns="http://www.w3.org/2000/svg">
<path d="M40 1.5175L30.5805 10.5739C31.9228 11.5378 33.1449 12.6901 34.2054 14.0118L36.8749 17.3383L35.2795 18.6584L32.6102 15.3317C31.5801 14.048 30.3783 12.9443 29.053 12.0428L21.0289 19.7577V53H18.9711V19.7577L10.9469 12.0428C9.62156 12.9443 8.4199 14.048 7.38985 15.3317L4.72053 18.6584L3.12513 17.3383L5.79456 14.0118C6.85509 12.6901 8.07708 11.5377 9.41934 10.5739L0 1.5175L1.41479 0L11.2237 9.43123C13.884 7.95751 16.8956 7.1583 20 7.1583C23.1044 7.1583 26.1159 7.95755 28.7761 9.43123L38.5852 0L40 1.5175ZM20 9.24795C17.4735 9.24795 15.0163 9.84431 12.8051 10.9517L20 17.8693L27.1948 10.9517C24.9836 9.84435 22.5265 9.24795 20 9.24795Z" fill="#F8F7F7"/>
</svg>
