<svg  viewBox="0 0 428 128" fill="none" xmlns="http://www.w3.org/2000/svg">
<path d="M39.3086 2.12397C33.7104 6.03586 28.2636 24.3916 19.1856 69.8297C16.6135 83.0699 13.4362 95.4074 12.2257 97.2129C10.7127 99.6202 8.59453 100.673 5.56852 100.673C2.99641 100.673 1.0295 101.275 1.0295 102.027C1.0295 102.78 0.575599 104.435 0.121697 105.789C-1.39131 109.701 11.6205 109.099 16.0083 105.037C20.5473 100.673 21.1525 99.0184 27.3558 68.1746C34.013 35.2245 39.7625 13.4083 42.4859 10.5496C44.3015 8.89455 44.9067 9.045 46.1171 11.4523C48.5379 15.966 52.0178 34.4723 57.0107 70.582C63.0628 114.365 64.2732 120.985 67.9044 124.596C73.6538 130.915 78.1928 128.508 83.3371 116.772L87.2709 108.196H237.815H388.359V104.435V100.673H236.453C66.8453 100.673 82.1266 99.6202 77.4363 111.958C75.9233 115.719 74.259 118.728 73.5025 118.728C71.8382 118.728 69.72 107.293 63.9706 66.0682C57.9185 23.0375 54.8925 8.89455 50.8074 3.62855C47.3275 -0.584259 43.9989 -1.18608 39.3086 2.12397Z" fill="#383737"/>
<path d="M210.43 38.2345C209.673 41.3941 208.311 42.1464 201.957 42.8987C188.188 44.7042 178.051 54.9353 178.051 67.1223C178.051 70.7333 178.808 75.0965 179.716 76.902C181.682 80.513 189.853 84.1239 196.207 84.1239C200.746 84.1239 200.898 84.4249 199.99 88.6377L198.931 93.1514H209.673C220.113 93.1514 220.264 93.1514 220.718 89.089C221.172 85.3276 221.928 84.7258 229.342 83.6726C243.716 81.7166 251.432 74.4947 252.945 61.2545C254.307 50.4216 249.465 44.7042 236.756 42.7482C231.914 41.996 231.006 41.2437 231.006 38.2345C231.006 34.6236 230.553 34.4731 221.172 34.4731C212.094 34.4731 211.337 34.774 210.43 38.2345ZM207.706 56.5903C207.252 58.0949 206.496 61.8563 205.891 65.0159C204.831 71.4855 203.016 73.1406 199.99 70.5828C196.359 67.5737 197.266 60.6526 201.654 57.1921C206.647 53.2802 208.765 53.1298 207.706 56.5903ZM231.612 56.4398C234.94 59.5994 234.638 63.3609 230.855 68.1755C227.829 71.9369 223.441 73.4415 223.441 70.5828C223.441 66.6709 226.921 54.0325 227.98 54.0325C228.737 54.0325 230.401 55.0857 231.612 56.4398Z" fill="#383737"/>
<path d="M99.5261 61.855C96.8027 75.3961 94.2306 87.5832 93.928 88.9373C93.1715 91.3446 94.2306 91.6455 101.947 91.6455H110.874L115.413 70.1301L119.8 48.7652L120.708 59.2972C121.313 65.0146 121.767 74.7943 121.919 80.6621L122.07 91.6455H130.845H139.621L148.548 71.4843C153.54 60.3504 157.777 51.7744 158.079 52.5267C158.533 53.7303 153.238 82.6181 151.422 88.9373C150.666 91.3446 151.725 91.6455 159.744 91.6455C168.065 91.6455 168.973 91.3446 169.73 88.185C172.604 75.5466 179.564 41.5433 179.564 39.7378C179.564 37.9323 176.689 37.481 164.585 37.481H149.607L147.64 42.2956C146.581 45.0038 143.555 51.6239 141.134 57.0404L136.443 66.8201L135.687 52.5267L134.93 38.2332L119.649 37.7819L104.519 37.3305L99.5261 61.855Z" fill="#383737"/>
<path d="M256.879 45.0038C255.971 49.2166 255.215 52.978 255.215 53.2789C255.215 53.7303 259.3 54.0312 264.293 54.0312C269.286 54.0312 273.371 54.3321 273.371 54.6331C273.371 55.0844 271.706 63.0587 269.588 72.6879C267.47 82.3172 265.806 90.4419 265.806 90.8932C265.806 91.3446 270.496 91.6455 276.094 91.6455H286.383L290.014 72.8384L293.645 54.0312H303.026H312.406L313.314 48.3139C313.919 45.3047 314.676 41.5433 315.13 40.0387C315.886 37.6314 313.919 37.481 287.29 37.481H258.543L256.879 45.0038Z" fill="#383737"/>
<path d="M315.886 61.8558C313.163 75.397 310.742 87.584 310.288 88.9381C309.532 91.3454 310.742 91.6463 321.636 91.6463H333.891L343.726 77.052C349.172 68.9273 353.56 63.3604 353.56 64.5641C353.409 65.7677 352.501 71.1842 351.291 76.6006C347.811 92.2482 347.508 91.6463 358.856 91.6463C367.782 91.6463 368.69 91.3454 369.447 88.1858C370.96 81.8666 379.281 40.0396 379.281 38.6854C379.281 38.0836 373.986 37.4818 367.48 37.4818H355.83L346.146 52.5275C340.851 60.8026 336.16 67.4228 335.858 67.1218C335.404 66.6705 338.127 52.2266 340.7 40.7918C341.456 37.6322 341.153 37.4818 331.168 37.4818H320.728L315.886 61.8558Z" fill="#383737"/>
<path d="M397.891 105.337C396.529 111.506 396.681 112.71 398.345 112.108C399.555 111.656 406.667 110.152 414.232 108.647L428 106.089L417.106 102.779C397.891 96.9116 399.555 96.7611 397.891 105.337Z" fill="#383737"/>
</svg>
