<svg width="368" height="127" viewBox="0 0 368 127" fill="none" xmlns="http://www.w3.org/2000/svg">
<path d="M42.1658 0.784027C37.4628 3.27619 33.6442 10.9939 29.3432 26.7106C27.3334 34.0665 22.9118 54.0842 18.2892 76.3528C13.5461 99.4254 13.1843 100.069 5.42648 100.069H1.32647L0.643138 103.646C0.281373 105.616 0 107.424 0 107.706C0 108.068 1.36667 108.148 5.54707 108.027C10.451 107.907 11.2951 107.746 13.3049 106.822C17.4451 104.932 20.3393 101.516 22.0677 96.6519C22.55 95.3254 24.7206 85.6381 26.8912 75.1469C36.4579 29.3233 41.1609 12.1193 45.0197 8.62228C45.8638 7.85855 45.904 7.85855 46.4668 8.62228C48.155 10.9135 50.6874 20.4801 52.8579 32.74C53.6619 37.1616 56.1138 53.441 58.2844 68.9165C62.8266 100.672 64.4344 110.922 65.5599 115.464C67.6099 123.583 70.6246 127 75.7698 127C80.4325 127 82.4825 124.789 86.4217 115.343C87.5874 112.57 88.9139 109.836 89.3159 109.233L90.0796 108.108L208.538 108.027L326.996 107.907L327.478 105.093C327.759 103.525 328.081 101.797 328.161 101.154L328.403 100.069L207.895 100.149C106.721 100.27 87.2659 100.35 86.4217 100.832C83.7286 102.279 81.558 105.535 79.2266 111.444C77.6188 115.504 76.0511 118.559 75.609 118.559C75.0864 118.559 73.8001 115.022 73.0364 111.524C72.1923 107.746 69.258 88.6127 66.5246 68.7156C60.3746 24.1782 57.4403 10.3105 52.657 3.39678C51.9736 2.39188 50.6874 1.22619 49.8432 0.784027C47.7932 -0.26107 44.1354 -0.26107 42.1658 0.784027Z" fill="#383737"/>
<path d="M108.328 38.2464C108.127 38.97 97.2744 90.9436 97.2744 91.3054C97.2744 91.5064 101.334 91.627 106.319 91.627C111.303 91.627 115.363 91.5064 115.363 91.3054C115.363 90.5819 124.206 49.3004 124.407 49.0994C124.527 48.9788 124.688 48.9788 124.769 49.0592C124.849 49.1396 125.211 56.5357 125.573 65.4994C125.934 74.4632 126.336 83.9897 126.497 86.723L126.738 91.627L135.581 91.5466L144.465 91.426L152.102 75.1465C156.323 66.1828 160.825 56.5759 162.151 53.8426C163.437 51.069 164.563 49.019 164.683 49.2602C164.764 49.5818 157.448 85.3162 156.162 90.7024L155.961 91.627H165.487H175.054L180.722 64.6955L186.349 37.7641L170.512 37.8445L154.675 37.9651L148.283 52.2347C144.786 60.073 141.852 66.6651 141.772 66.9063C141.249 68.1926 141.048 65.4191 140.606 52.3151L140.124 37.7641H124.326C112.026 37.7641 108.449 37.8847 108.328 38.2464Z" fill="#383737"/>
<path d="M194.349 38.2464C194.148 38.97 183.295 90.9436 183.295 91.3054C183.295 91.5064 188.038 91.627 193.866 91.627H204.478L209.221 68.9965C211.794 56.5759 214.366 44.4768 214.849 42.0651L215.773 37.7641H205.161C197.002 37.7641 194.469 37.8847 194.349 38.2464Z" fill="#383737"/>
<path d="M223.692 38.6484C223.33 40.1759 212.638 91.2652 212.638 91.4662C212.638 91.5466 217.421 91.627 223.29 91.627C229.158 91.627 233.942 91.5466 233.942 91.426C233.942 91.225 236.595 78.4426 236.956 76.8348C237.157 75.9504 237.198 75.9504 245.84 75.9504C256.331 75.9504 259.104 75.5083 264.451 72.8955C267.345 71.4485 268.872 70.4034 270.882 68.3534C274.62 64.6151 276.228 61.1985 277.153 54.9278L277.394 53.4406H286.599C295.241 53.4406 295.844 53.4808 295.844 54.1641C295.844 54.5661 294.115 63.0877 292.025 73.0563C289.935 83.0652 288.206 91.3456 288.206 91.426C288.206 91.7475 309.51 91.627 309.51 91.3054C309.51 91.1446 311.319 82.623 313.49 72.3328L317.429 53.6416L326.875 53.521L336.321 53.4406L337.809 46.2857C338.612 42.3866 339.376 38.8494 339.497 38.4474C339.698 37.8043 338.13 37.7641 310.154 37.7641C282.378 37.7641 280.609 37.8043 280.408 38.4474C280.328 38.8494 279.645 41.9847 278.961 45.4014C277.394 53.0788 277.313 53.3602 276.871 50.7073C276.228 46.4867 273.575 42.7886 269.596 40.417C265.335 37.8847 263.968 37.7641 242.825 37.7641H223.893L223.692 38.6484ZM251.306 50.7073C256.813 52.3553 256.572 59.3896 250.945 62.1632C248.854 63.1681 248.091 63.2887 243.87 63.4092C239.368 63.57 239.087 63.5298 239.328 62.8063C239.449 62.4043 240.011 59.8318 240.574 57.0582C241.097 54.2847 241.659 51.6318 241.78 51.1092C241.981 50.2651 242.182 50.2249 245.88 50.2249C247.97 50.2249 250.422 50.4259 251.306 50.7073Z" fill="#383737"/>
<path d="M337.165 104.169C336.362 108.229 335.799 111.606 335.879 111.686C335.96 111.766 343.155 110.4 351.877 108.671C360.64 106.943 367.634 105.415 367.473 105.255C367.232 105.014 339.336 96.8537 338.814 96.8537C338.693 96.8537 337.929 100.15 337.165 104.169Z" fill="#383737"/>
</svg>
