<svg width="201" height="127" viewBox="0 0 201 127" fill="none" xmlns="http://www.w3.org/2000/svg">
<g clip-path="url(#clip0_2068_1772)">
<path fill-rule="evenodd" clip-rule="evenodd" d="M100.102 19.2248L100.646 19.074C73.556 27.4761 52.1222 41.8703 51.6811 52.4423C51.2092 63.7587 74.9669 66.4125 104.732 58.3745C134.497 50.3364 159.016 34.6397 159.486 23.3244C159.73 17.4614 153.46 13.9257 143.226 12.9951C155.735 13.5535 163.572 17.1975 163.572 23.7026C163.572 36.1015 135.15 54.203 100.102 64.1325C65.0534 74.0619 36.6316 72.051 36.6316 59.6524C36.6316 47.2538 65.0534 29.1516 100.102 19.2259" fill="#383737"/>
<path fill-rule="evenodd" clip-rule="evenodd" d="M50.4021 84.4166L138.389 0L130.414 66.3602L115.866 49.712L50.4021 84.4166Z" fill="#383737"/>
<path d="M11.2116 126.495L6.45539 119.444H4.03169V126.495H0V105.343H7.55793C13.0706 105.343 15.6209 108.301 15.6209 112.394C15.6209 115.352 13.8908 118.185 10.7728 119.131L16.126 126.496L11.2116 126.495ZM4.03169 115.415H8.06263C10.0178 115.415 11.5896 114.155 11.5896 112.394C11.5896 110.41 10.0178 109.372 8.06263 109.372H4.03169V115.415Z" fill="#383737"/>
<path d="M41.1713 115.919C41.1719 118.11 40.5223 120.253 39.3045 122.075C38.0867 123.898 36.3555 125.318 34.3298 126.157C32.3041 126.997 30.0749 127.217 27.9242 126.79C25.7734 126.362 23.7976 125.308 22.2468 123.758C20.6959 122.209 19.6395 120.235 19.2113 118.086C18.783 115.936 19.0022 113.709 19.8409 111.684C20.6797 109.659 22.1004 107.928 23.9234 106.71C25.7465 105.492 27.8899 104.842 30.0827 104.842C33.0214 104.846 35.8385 106.015 37.917 108.091C39.9954 110.167 41.1656 112.982 41.1713 115.919ZM37.14 115.919C37.1394 114.525 36.7252 113.162 35.9497 112.003C35.1743 110.844 34.0723 109.94 32.7833 109.407C31.4942 108.874 30.0759 108.735 28.7076 109.007C27.3393 109.279 26.0825 109.95 25.096 110.936C24.1095 111.922 23.4377 113.179 23.1655 114.546C22.8933 115.914 23.0328 117.331 23.5665 118.619C24.1003 119.907 25.0042 121.009 26.164 121.784C27.3239 122.558 28.6876 122.972 30.0827 122.973C31.0101 122.975 31.9287 122.793 32.7858 122.44C33.6429 122.086 34.4217 121.566 35.0774 120.911C35.7331 120.255 36.2529 119.477 36.6068 118.62C36.9608 117.764 37.142 116.846 37.14 115.919Z" fill="#383737"/>
<path d="M61.2591 120.2C61.2591 123.976 58.3628 127 52.757 127C47.3374 127 44.5051 123.852 44.1274 123.474L46.1429 119.947C46.9936 120.876 48.0237 121.623 49.171 122.142C50.3183 122.662 51.559 122.945 52.8184 122.972C55.6228 122.972 57.2274 121.93 57.2274 120.453C57.2274 118.976 55.7167 118.219 52.9458 117.81C46.9288 116.897 44.8825 114.662 44.8825 111.452C44.8825 107.926 47.7479 104.843 53.0073 104.843C55.6497 104.833 58.2125 105.746 60.2535 107.423L58.5512 110.885C56.9705 109.589 54.9906 108.878 52.9458 108.871C50.8026 108.871 48.9141 109.467 48.9141 111.168C48.9141 112.614 50.1433 113.149 53.1976 113.654C57.8271 114.409 61.2591 115.668 61.2591 120.2Z" fill="#383737"/>
<path d="M80.918 120.799L82.4615 124.45C80.5465 126.085 78.1138 126.988 75.5953 127C69.3921 127 64.3201 122.025 64.3201 115.918C64.3201 109.81 69.3925 104.841 75.5953 104.841C77.9579 104.841 80.6651 105.721 82.4615 107.358L80.918 111.009C79.5133 109.635 77.6248 108.867 75.659 108.87C71.6277 108.87 68.3514 112.016 68.3514 115.918C68.3514 119.819 71.6292 122.972 75.659 122.972C76.6365 122.98 77.6058 122.792 78.5092 122.419C79.4126 122.046 80.2317 121.495 80.918 120.799Z" fill="#383737"/>
<path d="M107.259 115.919C107.259 118.11 106.609 120.252 105.391 122.074C104.173 123.896 102.441 125.317 100.416 126.155C98.3901 126.994 96.1611 127.213 94.0107 126.786C91.8602 126.358 89.8849 125.303 88.3344 123.754C86.784 122.204 85.7282 120.23 85.3004 118.081C84.8727 115.932 85.0922 113.704 85.9313 111.68C86.7704 109.656 88.1913 107.925 90.0144 106.708C91.8375 105.49 93.9809 104.841 96.1734 104.841C99.1119 104.846 101.929 106.014 104.006 108.091C106.084 110.167 107.254 112.982 107.259 115.919ZM103.227 115.919C103.226 114.525 102.812 113.162 102.037 112.003C101.261 110.844 100.159 109.941 98.8703 109.408C97.5813 108.875 96.1631 108.736 94.7949 109.008C93.4268 109.281 92.1702 109.952 91.184 110.938C90.1978 111.924 89.5263 113.181 89.2544 114.548C88.9825 115.915 89.1224 117.333 89.6564 118.621C90.1905 119.909 91.0947 121.01 92.2547 121.784C93.4147 122.558 94.7784 122.972 96.1734 122.972C97.1005 122.974 98.0188 122.792 98.8756 122.438C99.7325 122.085 100.511 121.565 101.166 120.91C101.822 120.255 102.341 119.476 102.695 118.62C103.048 117.763 103.229 116.846 103.227 115.919Z" fill="#383737"/>
<path d="M127.35 120.2C127.35 123.976 124.452 127 118.846 127C113.429 127 110.594 123.852 110.217 123.474L112.232 119.947C113.083 120.876 114.113 121.623 115.261 122.143C116.409 122.662 117.65 122.945 118.91 122.972C121.712 122.972 123.319 121.93 123.319 120.453C123.319 118.976 121.808 118.219 119.035 117.81C113.021 116.897 110.972 114.662 110.972 111.452C110.972 107.926 113.84 104.843 119.099 104.843C121.74 104.834 124.302 105.746 126.343 107.423L124.641 110.885C123.06 109.588 121.08 108.877 119.035 108.871C116.894 108.871 115.004 109.467 115.004 111.168C115.004 112.614 116.233 113.149 119.287 113.654C123.918 114.409 127.35 115.668 127.35 120.2Z" fill="#383737"/>
<path d="M155.686 126.495H151.402L149.639 112.647L144.096 126.495H142.081L136.537 112.647L134.773 126.495H130.49L133.513 105.343H137.545L143.087 118.942L148.631 105.343H152.663L155.686 126.495Z" fill="#383737"/>
<path d="M180.912 115.919C180.913 118.11 180.263 120.253 179.045 122.075C177.827 123.898 176.096 125.319 174.07 126.158C172.044 126.997 169.815 127.217 167.664 126.789C165.513 126.362 163.538 125.307 161.987 123.758C160.436 122.208 159.38 120.234 158.952 118.085C158.524 115.935 158.743 113.707 159.582 111.682C160.421 109.658 161.842 107.927 163.666 106.709C165.489 105.492 167.632 104.842 169.825 104.842C172.764 104.846 175.581 106.015 177.659 108.091C179.737 110.167 180.907 112.982 180.912 115.919ZM176.88 115.919C176.88 114.524 176.466 113.161 175.69 112.002C174.914 110.843 173.812 109.94 172.523 109.406C171.234 108.873 169.815 108.734 168.447 109.006C167.078 109.279 165.821 109.95 164.835 110.937C163.848 111.923 163.177 113.179 162.905 114.547C162.633 115.915 162.773 117.332 163.307 118.621C163.841 119.909 164.745 121.01 165.906 121.785C167.066 122.559 168.43 122.973 169.825 122.973C170.753 122.975 171.671 122.793 172.528 122.439C173.385 122.086 174.163 121.566 174.819 120.911C175.474 120.255 175.994 119.477 176.347 118.62C176.701 117.764 176.882 116.846 176.879 115.919H176.88Z" fill="#383737"/>
<path d="M201 120.2C201 123.976 198.102 127 192.496 127C187.078 127 184.244 123.852 183.867 123.474L185.883 119.947C186.733 120.876 187.764 121.623 188.911 122.143C190.059 122.662 191.3 122.945 192.559 122.972C195.361 122.972 196.968 121.93 196.968 120.453C196.968 118.976 195.456 118.219 192.685 117.81C186.67 116.897 184.621 114.662 184.621 111.452C184.621 107.926 187.489 104.843 192.748 104.843C195.39 104.834 197.952 105.746 199.992 107.423L198.29 110.885C196.709 109.589 194.729 108.877 192.685 108.871C190.543 108.871 188.653 109.467 188.653 111.168C188.653 112.614 189.882 113.149 192.936 113.654C197.568 114.409 201 115.668 201 120.2Z" fill="#383737"/>
</g>
<defs>
<clipPath id="clip0_2068_1772">
<rect width="201" height="127" fill="white"/>
</clipPath>
</defs>
</svg>
