<svg  viewBox="0 0 201 128" fill="none" xmlns="http://www.w3.org/2000/svg">
<g clip-path="url(#clip0_1225_3381)">
<path fill-rule="evenodd" clip-rule="evenodd" d="M100.5 19.3564L101.047 19.2046C73.8486 27.6644 52.3295 42.1576 51.8868 52.8022C51.413 64.1964 75.2651 66.8684 105.149 58.7751C135.032 50.6819 159.648 34.8773 160.12 23.4842C160.365 17.5809 154.071 14.021 143.796 13.084C156.355 13.6462 164.222 17.3152 164.222 23.865C164.222 36.3491 135.687 54.575 100.5 64.5727C65.3122 74.5703 36.7773 72.5456 36.7773 60.0618C36.7773 47.5781 65.3122 29.3518 100.5 19.3575" fill="#383737"/>
<path fill-rule="evenodd" clip-rule="evenodd" d="M50.6021 84.9966L138.94 0L130.932 66.8161L116.326 50.0535L50.6021 84.9966Z" fill="#383737"/>
<path d="M15.5941 113.378C15.5941 116.969 13.016 120.436 8.55318 120.436H4.02491V127.495H0V106.318H7.54498C13.047 106.318 15.5941 109.28 15.5941 113.378ZM11.5695 113.378C11.5695 111.391 9.9989 110.352 8.04908 110.352H4.02491V116.402H8.04908C10 116.402 11.5695 115.142 11.5695 113.378Z" fill="#383737"/>
<path d="M40.3771 116.903C40.3778 119.098 39.7293 121.243 38.5134 123.068C37.2976 124.893 35.5691 126.315 33.5465 127.156C31.524 127.996 29.2982 128.216 27.1507 127.788C25.0033 127.361 23.0306 126.305 21.4822 124.753C19.9338 123.202 18.8791 121.225 18.4517 119.073C18.0243 116.92 18.2433 114.69 19.081 112.662C19.9187 110.635 21.3375 108.902 23.1579 107.682C24.9782 106.463 27.1185 105.813 29.3079 105.812C32.2416 105.817 35.0537 106.987 37.1285 109.066C39.2032 111.145 40.3714 113.963 40.3771 116.903ZM36.3522 116.903C36.3518 115.507 35.9383 114.143 35.1643 112.982C34.3902 111.822 33.2901 110.917 32.0032 110.383C30.7163 109.849 29.3004 109.709 27.9343 109.982C26.5683 110.254 25.3135 110.927 24.3287 111.914C23.3438 112.901 22.6731 114.159 22.4013 115.528C22.1295 116.897 22.2689 118.316 22.8017 119.606C23.3346 120.896 24.237 121.998 25.395 122.774C26.5529 123.55 27.9144 123.964 29.3072 123.965C30.2329 123.966 31.1499 123.785 32.0056 123.431C32.8612 123.077 33.6386 122.557 34.2932 121.901C34.9478 121.244 35.4666 120.465 35.82 119.608C36.1733 118.75 36.3542 117.831 36.3522 116.903Z" fill="#383737"/>
<path d="M59.7148 121.791L61.2544 125.449C59.3426 127.085 56.9139 127.99 54.3997 128.001C48.2051 128.001 43.1436 123.021 43.1436 116.907C43.1436 110.793 48.2051 105.816 54.3997 105.816C56.7579 105.816 59.4635 106.698 61.2544 108.337L59.7133 111.993C58.311 110.617 56.4257 109.848 54.4633 109.851C50.4387 109.851 47.1685 112.999 47.1685 116.907C47.1685 120.815 50.4387 123.968 54.4633 123.968C55.4396 123.977 56.4076 123.789 57.3098 123.415C58.212 123.041 59.0299 122.489 59.7148 121.791Z" fill="#383737"/>
<path d="M83.5674 127.495H78.4733L70.4852 118.23V127.495H66.4614V106.318H70.4852V115.08L77.9704 106.318H83.0648L74.0064 116.433L83.5674 127.495Z" fill="#383737"/>
<path d="M106.541 116.903C106.541 119.098 105.893 121.243 104.677 123.068C103.461 124.893 101.732 126.316 99.7096 127.156C97.6869 127.996 95.461 128.216 93.3135 127.788C91.166 127.36 89.1933 126.304 87.645 124.752C86.0966 123.201 85.0422 121.224 84.615 119.071C84.1879 116.919 84.4072 114.688 85.2452 112.661C86.0833 110.633 87.5024 108.9 89.3231 107.681C91.1438 106.462 93.2842 105.812 95.4738 105.813C98.4072 105.817 101.219 106.987 103.293 109.066C105.368 111.145 106.536 113.963 106.541 116.903ZM102.517 116.903C102.516 115.507 102.103 114.142 101.329 112.982C100.555 111.821 99.4545 110.917 98.1675 110.383C96.8805 109.849 95.4644 109.709 94.0983 109.982C92.7323 110.255 91.4775 110.927 90.4927 111.915C89.5079 112.902 88.8374 114.16 88.5658 115.529C88.2942 116.898 88.4338 118.318 88.967 119.607C89.5001 120.897 90.4029 121.999 91.561 122.775C92.7192 123.551 94.0809 123.965 95.4738 123.965C96.3992 123.966 97.3159 123.784 98.1712 123.43C99.0265 123.076 99.8035 122.556 100.458 121.899C101.112 121.243 101.631 120.464 101.984 119.607C102.337 118.75 102.518 117.831 102.516 116.903H102.517Z" fill="#383737"/>
<path d="M125.878 121.792L127.419 125.448C125.507 127.084 123.079 127.989 120.565 128C114.37 128 109.309 123.02 109.309 116.906C109.309 110.793 114.37 105.815 120.565 105.815C122.923 105.815 125.626 106.697 127.419 108.336L125.878 111.992C124.476 110.616 122.591 109.847 120.628 109.85C116.604 109.85 113.333 112.998 113.333 116.906C113.333 120.814 116.604 123.967 120.628 123.967C121.604 123.976 122.572 123.788 123.473 123.414C124.375 123.04 125.193 122.489 125.878 121.792Z" fill="#383737"/>
<path d="M155.831 127.495H151.555L149.795 113.629L144.263 127.495H142.251L136.716 113.629L134.955 127.495H130.678L133.697 106.318H137.721L143.256 119.933L148.791 106.318H152.815L155.831 127.495Z" fill="#383737"/>
<path d="M180.121 116.903C180.122 119.098 179.473 121.243 178.258 123.068C177.042 124.893 175.313 126.315 173.291 127.156C171.268 127.996 169.042 128.216 166.895 127.788C164.747 127.361 162.775 126.305 161.226 124.753C159.678 123.202 158.623 121.225 158.196 119.073C157.768 116.92 157.987 114.69 158.825 112.662C159.663 110.635 161.082 108.902 162.902 107.682C164.722 106.463 166.863 105.813 169.052 105.812C171.986 105.817 174.798 106.986 176.873 109.065C178.948 111.144 180.116 113.963 180.121 116.903ZM176.097 116.903C176.096 115.507 175.683 114.142 174.909 112.982C174.134 111.821 173.034 110.917 171.747 110.383C170.46 109.849 169.044 109.709 167.678 109.982C166.312 110.255 165.057 110.927 164.073 111.915C163.088 112.902 162.417 114.16 162.146 115.529C161.874 116.898 162.014 118.318 162.547 119.607C163.08 120.897 163.983 121.999 165.141 122.775C166.299 123.551 167.661 123.965 169.054 123.965C169.979 123.966 170.896 123.785 171.751 123.43C172.607 123.076 173.384 122.556 174.039 121.9C174.693 121.244 175.212 120.465 175.565 119.607C175.918 118.75 176.099 117.831 176.097 116.903H176.097Z" fill="#383737"/>
<path d="M199.459 121.792L201 125.448C199.088 127.084 196.66 127.989 194.145 128C187.952 128 182.889 123.02 182.889 116.906C182.889 110.793 187.951 105.815 194.145 105.815C196.505 105.815 199.207 106.697 201 108.336L199.459 111.992C198.057 110.616 196.171 109.847 194.209 109.85C190.184 109.85 186.914 112.998 186.914 116.906C186.914 120.814 190.184 123.967 194.209 123.967C195.185 123.976 196.152 123.788 197.054 123.414C197.956 123.04 198.774 122.489 199.459 121.792Z" fill="#383737"/>
</g>
<defs>
<clipPath id="clip0_1225_3381">
<rect width="201" height="128" fill="white"/>
</clipPath>
</defs>
</svg>
