<svg width="16" height="17" viewBox="0 0 16 17" fill="none" xmlns="http://www.w3.org/2000/svg">
<path d="M16.0036 5.99803C16.0041 6.17484 15.9343 6.34459 15.8096 6.46993C15.6849 6.59528 15.5155 6.66595 15.3387 6.6664C15.1618 6.66686 14.9921 6.59705 14.8668 6.47235C14.7414 6.34765 14.6707 6.17826 14.6703 6.00145L14.6607 2.27813L9.14743 7.82061C9.02265 7.94602 8.85317 8.01674 8.67626 8.01719C8.49935 8.01764 8.32951 7.9478 8.2041 7.82303C8.07868 7.69826 8.00797 7.52877 8.00752 7.35186C8.00706 7.17495 8.07691 7.00511 8.20168 6.8797L13.715 1.33721L9.99167 1.34676C9.81486 1.34721 9.64511 1.27741 9.51976 1.1527C9.39442 1.028 9.32375 0.858613 9.32329 0.681802C9.32284 0.504992 9.39264 0.335243 9.51735 0.209899C9.64205 0.0845545 9.81144 0.013882 9.98825 0.0134288L15.3216 -0.000242493C15.4984 -0.000695725 15.6681 0.0691074 15.7935 0.193811C15.9188 0.318514 15.9895 0.487903 15.9899 0.664713L16.0036 5.99803ZM12.6754 8.00657C12.4986 8.00702 12.3292 8.07769 12.2045 8.20304C12.0798 8.32838 12.01 8.49813 12.0105 8.67494L12.0258 14.6749L1.35921 14.7023L1.33186 4.03563L7.33184 4.02025C7.50865 4.0198 7.67804 3.94913 7.80275 3.82378C7.92745 3.69844 7.99725 3.52869 7.9968 3.35188C7.99635 3.17507 7.92567 3.00568 7.80033 2.88098C7.67499 2.75627 7.50524 2.68647 7.32843 2.68692L1.32845 2.7023C0.974825 2.70321 0.636048 2.84455 0.386641 3.09524C0.137234 3.34593 -0.00237174 3.68543 -0.00146527 4.03905L0.0258773 14.7057C0.0267838 15.0593 0.168128 15.3981 0.418817 15.6475C0.669506 15.8969 1.009 16.0365 1.36262 16.0356L12.0293 16.0082C12.3829 16.0073 12.7217 15.866 12.9711 15.6153C13.2205 15.3646 13.3601 15.0251 13.3592 14.6715L13.3438 8.67152C13.3433 8.49471 13.2727 8.32532 13.1473 8.20062C13.022 8.07592 12.8522 8.00611 12.6754 8.00657Z" fill="currentColor"/>
</svg>
