<svg width="1440" height="272" viewBox="0 0 1440 272" fill="none" xmlns="http://www.w3.org/2000/svg">
<path d="M1450.89 82.0047C1450.89 82.0047 1481.98 -13.7142 1390.72 1.67497C1297 17.4791 1142.33 89.4063 1048.98 108.011C957.348 126.271 957.81 82.0047 895.934 82.0047C802.207 102.12 804.555 112.241 710.947 133.048C619.568 153.36 618.68 164.241 525.96 164.241C433.693 164.241 433.724 149.383 340.974 138.72C248.737 128.115 248.688 121.705 155.987 121.705C63.701 121.705 -29.0001 121.705 -29.0001 121.705V272H155.987H340.974H525.96H710.947H895.934H1080.92H1265.91H1450.89V82.0047Z" fill="url(#paint0_linear_3785_16114)" fill-opacity="0.7"/>
<path d="M1450.89 82.0047C1450.89 82.0047 1481.98 -13.7142 1390.72 1.67497C1297 17.4791 1142.33 89.4063 1048.98 108.011C957.348 126.271 957.81 82.0047 895.934 82.0047C802.207 102.12 804.555 112.241 710.947 133.048C619.568 153.36 618.68 164.241 525.96 164.241C433.693 164.241 433.724 149.383 340.974 138.72C248.737 128.115 248.688 121.705 155.987 121.705C63.701 121.705 -29.0001 121.705 -29.0001 121.705V272H155.987H340.974H525.96H710.947H895.934H1080.92H1265.91H1450.89V82.0047Z" fill="black" fill-opacity="0.2"/>
<path d="M1452.38 82.611C1452.38 82.611 1484.87 -12.7308 1393.62 2.68686C1299.91 18.5202 1143.21 91.1478 1049.87 109.787C958.25 128.081 957.688 83.9939 898.797 81.751C878.825 80.0688 804.453 112.904 710.856 133.749C619.489 154.098 618.6 165 525.892 165C433.636 165 433.667 150.114 340.928 139.431C248.703 128.807 248.653 122.385 155.964 122.385C63.6896 122.385 -29 122.385 -29 122.385" stroke="url(#paint1_linear_3785_16114)" stroke-opacity="0.7" stroke-width="2" stroke-linejoin="bevel"/>
<defs>
<linearGradient id="paint0_linear_3785_16114" x1="1450.89" y1="-8.73965" x2="1450.89" y2="272" gradientUnits="userSpaceOnUse">
<stop offset="0.05" stop-color="#057AA3" stop-opacity="0.7"/>
<stop offset="0.95" stop-color="#03496A" stop-opacity="0"/>
</linearGradient>
<linearGradient id="paint1_linear_3785_16114" x1="1452.38" y1="85.9798" x2="-28.9998" y2="85.9798" gradientUnits="userSpaceOnUse">
<stop stop-color="#0D0C0C"/>
<stop offset="0.0808231" stop-color="#26C7FF"/>
<stop offset="0.926384" stop-color="#26C7FF"/>
<stop offset="1" stop-color="#0D0C0C"/>
</linearGradient>
</defs>
</svg>
