<svg width="1236" height="166" viewBox="0 0 1236 166" fill="none" xmlns="http://www.w3.org/2000/svg">
<path d="M1334.36 83.0047C1334.36 83.0047 1362.64 -12.7142 1279.61 2.67497C1197.5 20.5 1113.5 90 1036 96C953 105 866.918 78.529 829.5 81C776.5 84.5 775.161 83.1929 690 104C607 120.5 612.032 87.5 515 87.5C437.5 87.5 434 141 328.5 118C245 105 240.631 92.5 156.294 92.5C72.3362 92.5 -12 72.5 -12 72.5V273H156.294H324.589H492.883H661.178H829.472H997.766H1166.06H1334.36V83.0047Z" fill="url(#paint0_linear_3785_16173)" fill-opacity="0.7"/>
<path d="M1335.88 82.8646C1335.88 82.8646 1365.46 -12.7734 1282.4 2.6921C1197.1 18.5747 1143.86 73.0839 1058.9 91.7811C975.505 110.132 885.833 83.2547 832.002 82.0019C813.306 81.5667 783.457 80.9019 698.264 101.812C615.099 122.224 601.228 87.2672 520.198 87.2672C431.665 87.2672 441.051 133.092 356.638 122.376C272.693 111.719 242.433 92.7843 158.065 92.7843C74.075 92.7843 -17.9999 70.7159 -17.9999 70.7159" stroke="url(#paint1_linear_3785_16173)" stroke-opacity="0.7" stroke-width="2" stroke-linejoin="bevel"/>
<defs>
<linearGradient id="paint0_linear_3785_16173" x1="1334.36" y1="-7.73965" x2="1334.36" y2="273" gradientUnits="userSpaceOnUse">
<stop offset="0.05" stop-color="#057AA3" stop-opacity="0.7"/>
<stop offset="0.95" stop-color="#03496A" stop-opacity="0"/>
</linearGradient>
<linearGradient id="paint1_linear_3785_16173" x1="1335.88" y1="86.2437" x2="-12.4974" y2="86.2437" gradientUnits="userSpaceOnUse">
<stop offset="0.0808231" stop-color="#26C7FF"/>
<stop offset="0.926384" stop-color="#26C7FF"/>
</linearGradient>
</defs>
</svg>
