<svg width="1248" height="439" viewBox="0 0 1248 439" fill="none" xmlns="http://www.w3.org/2000/svg">
<mask id="mask0_3785_16170" style="mask-type:luminance" maskUnits="userSpaceOnUse" x="0" y="0" width="1348" height="504">
<path d="M0 0H1348V504H0V0Z" fill="white"/>
</mask>
<g mask="url(#mask0_3785_16170)">
<path d="M1346.36 356.005C1346.36 356.005 1374.64 260.286 1291.61 275.675C1209.5 293.5 1125.5 363 1048 369C965 378 878.918 351.529 841.5 354C788.5 357.5 787.161 356.193 702 377C619 393.5 624.032 360.5 527 360.5C449.5 360.5 446 414 340.5 391C257 378 252.631 365.5 168.294 365.5C84.3362 365.5 0 345.5 0 345.5V546H168.294H336.589H504.883H673.178H841.472H1009.77H1178.06H1346.36V356.005Z" fill="url(#paint0_linear_3785_16170)" fill-opacity="0.7"/>
<path d="M1347.88 355.865C1347.88 355.865 1377.46 260.227 1294.4 275.692C1209.1 291.575 1155.86 346.084 1070.9 364.781C987.505 383.132 897.833 356.255 844.002 355.002C825.306 354.567 795.457 353.902 710.264 374.812C627.099 395.224 613.228 360.267 532.198 360.267C443.665 360.267 453.051 406.092 368.638 395.376C284.693 384.719 254.433 365.784 170.065 365.784C86.075 365.784 -5.99993 343.716 -5.99993 343.716" stroke="url(#paint1_linear_3785_16170)" stroke-opacity="0.7" stroke-width="2" stroke-linejoin="bevel"/>
</g>
<defs>
<linearGradient id="paint0_linear_3785_16170" x1="1346.36" y1="265.26" x2="1346.36" y2="546" gradientUnits="userSpaceOnUse">
<stop offset="0.05" stop-color="#057AA3" stop-opacity="0.7"/>
<stop offset="0.95" stop-color="#03496A" stop-opacity="0"/>
</linearGradient>
<linearGradient id="paint1_linear_3785_16170" x1="1347.88" y1="359.244" x2="-0.497363" y2="359.244" gradientUnits="userSpaceOnUse">
<stop offset="0.0808231" stop-color="#26C7FF"/>
<stop offset="0.926384" stop-color="#26C7FF"/>
</linearGradient>
</defs>
</svg>
