<svg width="1248" height="470" viewBox="0 0 1248 470" fill="none" xmlns="http://www.w3.org/2000/svg">
<mask id="mask0_3785_16184" style="mask-type:luminance" maskUnits="userSpaceOnUse" x="0" y="0" width="1348" height="504">
<path d="M0 0H1348V504H0V0Z" fill="white"/>
</mask>
<g mask="url(#mask0_3785_16184)">
<path d="M1300.66 174.835C1300.66 174.835 1335.68 165.445 1252.67 180.842C1177.19 191.346 1189.19 174.337 1154.2 174.337C1046.71 174.337 963.249 255.886 903.264 264.385C821.785 259.383 770.798 255.652 684.817 274.887C612.839 290.989 607.84 283.395 523.358 279.89C440.38 283.391 408.392 309.909 327.413 309.409C218.441 303.906 249.433 270.388 166.954 264.385C75.9773 259.882 -2.50244 313.411 -2.50244 313.411L-12 474.497L174.452 479H342.409H513.365H676.323H847.279H1015.24H1182.19L1353 465.489L1300.66 174.835Z" fill="url(#paint0_linear_3785_16184)" fill-opacity="0.7"/>
<path d="M1348 278.033C1348 278.033 1339.65 164.252 1256.64 179.704C1171.4 195.573 1188.1 161.025 1103.18 179.706C1019.85 198.04 945.314 266.64 891.745 264.392C873.578 262.706 779.939 252.019 694.801 272.911C611.691 293.305 615.677 280.929 531.348 280.929C447.43 280.929 390.77 319.197 306.412 308.49C222.522 297.842 240.268 264.392 155.955 264.392C72.0204 264.392 -3.742e-05 313 -3.742e-05 313" stroke="url(#paint1_linear_3785_16184)" stroke-opacity="0.7" stroke-width="2" stroke-linejoin="bevel"/>
</g>
<defs>
<linearGradient id="paint0_linear_3785_16184" x1="1346.01" y1="186.604" x2="1342.5" y2="648" gradientUnits="userSpaceOnUse">
<stop stop-color="#057AA3" stop-opacity="0.7"/>
<stop offset="1" stop-color="#03496A" stop-opacity="0"/>
</linearGradient>
<linearGradient id="paint1_linear_3785_16184" x1="1348" y1="281.413" x2="0.501536" y2="281.413" gradientUnits="userSpaceOnUse">
<stop offset="0.0808231" stop-color="#26C7FF"/>
<stop offset="0.926384" stop-color="#26C7FF"/>
</linearGradient>
</defs>
</svg>
