<svg width="1248" height="298" viewBox="0 0 1248 298" fill="none" xmlns="http://www.w3.org/2000/svg">
<path d="M1300.66 2.83533C1300.66 2.83533 1335.68 -6.55495 1252.67 8.84244C1177.19 19.3463 1189.19 2.33719 1154.2 2.33719C1046.71 2.33719 963.249 83.8861 903.264 92.3853C821.785 87.3826 770.798 83.6523 684.817 102.887C612.839 118.989 607.84 111.395 523.358 107.89C440.38 111.391 408.392 137.909 327.413 137.409C218.441 131.906 249.433 98.388 166.954 92.3848C75.9773 87.8823 -2.50244 141.411 -2.50244 141.411L-12 302.497L174.452 307H342.409H513.365H676.323H847.279H1015.24H1182.19L1353 293.489L1300.66 2.83533Z" fill="url(#paint0_linear_3785_16187)" fill-opacity="0.7"/>
<path d="M1348 106.033C1348 106.033 1339.65 -7.74779 1256.64 7.70412C1171.4 23.5727 1188.1 -10.9747 1103.18 7.70608C1019.85 26.0404 945.314 94.6401 891.745 92.3922C873.578 90.7063 779.939 80.0192 694.801 100.911C611.691 121.305 615.677 108.929 531.348 108.929C447.43 108.929 390.77 147.197 306.412 136.49C222.522 125.842 240.268 92.3922 155.955 92.3922C72.0204 92.3922 -3.742e-05 141 -3.742e-05 141" stroke="url(#paint1_linear_3785_16187)" stroke-opacity="0.7" stroke-width="2" stroke-linejoin="bevel"/>
<defs>
<linearGradient id="paint0_linear_3785_16187" x1="1346.01" y1="14.6041" x2="1342.5" y2="476" gradientUnits="userSpaceOnUse">
<stop stop-color="#057AA3" stop-opacity="0.7"/>
<stop offset="1" stop-color="#03496A" stop-opacity="0"/>
</linearGradient>
<linearGradient id="paint1_linear_3785_16187" x1="1348" y1="109.413" x2="0.501536" y2="109.413" gradientUnits="userSpaceOnUse">
<stop offset="0.0808231" stop-color="#26C7FF"/>
<stop offset="0.926384" stop-color="#26C7FF"/>
</linearGradient>
</defs>
</svg>
