<svg width="24" height="32" viewBox="0 0 24 32" fill="none" xmlns="http://www.w3.org/2000/svg">
<path d="M24 0.916224L18.3483 6.38423C19.1537 6.96619 19.8869 7.66195 20.5233 8.45994L22.1249 10.4684L21.1677 11.2654L19.5661 9.25688C18.948 8.48182 18.227 7.81541 17.4318 7.27111L12.6174 11.9292V32H11.3826V11.9292L6.56815 7.27111C5.77293 7.8154 5.05194 8.48184 4.43391 9.25688L2.83232 11.2654L1.87508 10.4684L3.47674 8.45994C4.11306 7.66196 4.84625 6.96618 5.6516 6.38423L0 0.916224L0.848875 0L6.73425 5.69433C8.33041 4.80454 10.1374 4.32199 12 4.32199C13.8626 4.32199 15.6695 4.80456 17.2657 5.69433L23.1511 0L24 0.916224ZM12 5.58367C10.4841 5.58367 9.00975 5.94374 7.68305 6.61232L12 10.789L16.3169 6.61232C14.9902 5.94376 13.5159 5.58367 12 5.58367Z" fill="#F8F7F7"/>
</svg>
