<svg width="16" height="9" viewBox="0 0 16 9" fill="none" xmlns="http://www.w3.org/2000/svg">
<path d="M14.7578 0.219768C14.8254 0.150093 14.9056 0.0948238 14.9939 0.0571165C15.0822 0.0194092 15.1768 0 15.2724 0C15.3679 0 15.4625 0.0194092 15.5508 0.0571165C15.6391 0.0948238 15.7193 0.150093 15.7869 0.219768C15.8544 0.289442 15.908 0.372159 15.9446 0.463194C15.9812 0.554229 16 0.651798 16 0.750334C16 0.848869 15.9812 0.94644 15.9446 1.03747C15.908 1.12851 15.8544 1.21122 15.7869 1.2809L8.51452 8.78006C8.44698 8.84978 8.36677 8.9051 8.27849 8.94284C8.1902 8.98057 8.09557 9 8 9C7.90443 9 7.8098 8.98057 7.72151 8.94284C7.63323 8.9051 7.55302 8.84978 7.48548 8.78006L0.213121 1.2809C0.0766618 1.14018 -3.80414e-09 0.949334 0 0.750334C3.80414e-09 0.551333 0.0766618 0.360482 0.213121 0.219768C0.34958 0.0790529 0.534658 0 0.72764 0C0.920622 0 1.1057 0.0790529 1.24216 0.219768L8 7.1893L14.7578 0.219768Z" fill="#565454"/>
</svg>
