<svg width="9" height="16" viewBox="0 0 9 16" fill="none" xmlns="http://www.w3.org/2000/svg">
<path d="M8.78006 8.51452L1.2809 15.7869C1.21122 15.8544 1.12851 15.908 1.03747 15.9446C0.946439 15.9812 0.848868 16 0.750333 16C0.651798 16 0.554227 15.9812 0.463193 15.9446C0.372158 15.908 0.289442 15.8544 0.219767 15.7869C0.150092 15.7193 0.0948231 15.6391 0.0571154 15.5508C0.0194076 15.4625 0 15.3679 0 15.2724C0 15.1768 0.0194076 15.0822 0.0571154 14.9939C0.0948231 14.9056 0.150092 14.8254 0.219767 14.7578L7.1893 8L0.219767 1.24216C0.0790523 1.1057 -1.48267e-09 0.920622 0 0.72764C1.48267e-09 0.534658 0.0790523 0.34958 0.219767 0.213121C0.360482 0.0766618 0.551332 1.43783e-09 0.750333 0C0.949334 -1.43783e-09 1.14018 0.0766618 1.2809 0.213121L8.78006 7.48548C8.84978 7.55302 8.9051 7.63323 8.94284 7.72151C8.98058 7.8098 9 7.90443 9 8C9 8.09557 8.98058 8.1902 8.94284 8.27849C8.9051 8.36677 8.84978 8.44698 8.78006 8.51452Z" fill="#F8F7F7"/>
</svg>
